<svg width="22" height="16" viewBox="0 0 22 16" fill="none" xmlns="http://www.w3.org/2000/svg">
<path d="M0.59375 0.209459L0.59375 2.84082L5.17052 2.84082C5.17052 2.84082 8.02722 1.16471 9.67854 0.209459L0.59375 0.209459Z" fill="#212EA0"/>
<path d="M10.8204 0.589613C10.8204 0.445439 10.7838 0.315915 10.7227 0.21029L12.4352 0.21029C14.0701 0.21029 15.3953 1.83012 15.3953 3.82851L15.3953 12.3818C15.3959 14.3802 14.0701 16 12.4352 16L10.7227 16C10.7838 15.8944 10.8204 15.7649 10.8204 15.6207L10.8204 0.589613Z" fill="#212EA0"/>
<path d="M9.67854 16C8.02659 15.0448 5.16863 13.3686 5.17052 13.3686L0.59375 13.3686L0.59375 16L9.67854 16Z" fill="#212EA0"/>
<path d="M5.70703 12.0503L5.70703 4.15856C5.70703 4.03135 5.76695 3.91493 5.86157 3.86096L9.74387 1.62589L9.74388 14.583L5.86157 12.3479C5.76758 12.294 5.70703 12.1775 5.70703 12.0503Z" fill="#212EA0"/>
<path d="M0.59375 12.0527L4.63059 12.0527L4.63059 4.15788L0.59375 4.15788L0.59375 12.0527Z" fill="#212EA0"/>
<path d="M18.3749 0.357742C18.6058 0.128761 18.9445 0.171936 19.1318 0.454116C20.5586 2.60207 21.4051 5.24423 21.4051 8.10534C21.4051 10.9665 20.5586 13.6086 19.1318 15.7566C18.9445 16.0387 18.6058 16.0819 18.3749 15.8529C18.1441 15.624 18.1088 15.2099 18.2961 14.9278C19.5803 12.9941 20.3284 10.6396 20.3284 8.10534C20.3284 5.57112 19.5803 3.21731 18.2961 1.28292C18.1088 1.00074 18.1441 0.586724 18.3749 0.357742Z" fill="#212EA0"/>
<path d="M16.8976 3.91075C17.1581 3.73574 17.4855 3.85139 17.6287 4.16903C18.1497 5.3255 18.4411 6.59994 18.4411 7.94067C18.4411 9.28141 18.1497 10.5558 17.6287 11.7123C17.4855 12.0307 17.1581 12.1464 16.8976 11.9706C16.6371 11.7956 16.5425 11.3954 16.6863 11.077C17.1266 10.1002 17.365 9.04241 17.365 7.94067C17.365 6.83894 17.1266 5.78115 16.6863 4.80432C16.5432 4.4859 16.6378 4.08576 16.8976 3.91075Z" fill="#212EA0"/>
</svg>
