<svg width="20" height="17" viewBox="0 0 20 17" fill="none" xmlns="http://www.w3.org/2000/svg">
<path d="M14.1425 6.86778V13.7232C14.1425 15.3252 12.8441 16.6236 11.2421 16.6236H9.56445C9.62437 16.5393 9.65985 16.4357 9.65985 16.32V9.85427C10.718 8.74902 11.3689 7.25112 11.3689 5.60431C11.3689 5.03714 11.2915 4.48801 11.1473 3.9668H11.2421C12.8441 3.9668 14.1425 5.26575 14.1425 6.86778Z" fill="#212EA0"/>
<path d="M8.54192 16.6229C6.92361 15.8568 4.12327 14.5137 4.12501 14.5137H1.89648V16.6229H8.54251H8.54192Z" fill="#212EA0"/>
<path d="M5.21872 11.7555C6.46939 11.7555 7.63397 11.3803 8.60543 10.7363V15.4895L4.80163 13.6978C4.70914 13.6542 4.65039 13.5611 4.65039 13.4593V11.7287C4.8377 11.7468 5.02734 11.7555 5.21872 11.7555Z" fill="#212EA0"/>
<path d="M1.89648 10.7783C2.41537 11.1122 2.98661 11.3705 3.59624 11.5375V13.46H1.89648V10.7783Z" fill="#212EA0"/>
<path d="M17.029 4.08482C17.2553 3.901 17.5874 3.9359 17.7707 4.16161C19.1685 5.88347 19.998 8.00147 19.998 10.2951C19.998 12.5888 19.1685 14.7068 17.7707 16.4287C17.5868 16.655 17.2547 16.6893 17.029 16.5055C16.8027 16.3216 16.7684 15.9895 16.9522 15.7638C18.2104 14.2135 18.944 12.3265 18.944 10.2951C18.944 8.26382 18.211 6.37675 16.9522 4.8265C16.7684 4.60022 16.8033 4.26806 17.029 4.08482Z" fill="#212EA0"/>
<path d="M15.5893 6.93189C15.8447 6.79111 16.1652 6.88419 16.306 7.13898C16.8167 8.06564 17.1023 9.08712 17.1023 10.1621C17.1023 11.2371 16.8167 12.2586 16.306 13.1853C16.1652 13.4406 15.8447 13.5331 15.5893 13.3923C15.3339 13.2516 15.2414 12.931 15.3822 12.6757C15.8138 11.8927 16.0471 11.0451 16.0471 10.1615C16.0471 9.27792 15.8132 8.43037 15.3822 7.64739C15.2414 7.39202 15.3345 7.0715 15.5893 6.93072V6.93189Z" fill="#212EA0"/>
<path d="M10.1758 3.96693C9.48767 1.88848 7.52615 0.384766 5.21967 0.384766C2.34138 0.384766 0 2.72672 0 5.60444C0 7.22159 0.73877 8.66888 1.89695 9.62695C2.39431 10.0388 2.96962 10.3605 3.5967 10.5658C3.9341 10.6764 4.28719 10.7537 4.65134 10.7933C4.83807 10.8136 5.02771 10.8241 5.21967 10.8241C6.51107 10.8241 7.69426 10.3529 8.60638 9.57285C9.01823 9.22092 9.37482 8.80674 9.66102 8.3437C10.1543 7.54735 10.4393 6.60847 10.4393 5.60444C10.4393 5.03262 10.3469 4.48232 10.1758 3.96693ZM6.19694 6.63348C6.19694 6.96913 5.92179 7.24427 5.58615 7.24427H3.03943C2.70378 7.24427 2.42863 6.96913 2.42863 6.63348V4.5754C2.42863 4.23975 2.70378 3.9646 3.03943 3.9646H5.58615C5.92179 3.9646 6.19694 4.23335 6.19694 4.5754V6.63348ZM8.01071 6.54157C8.01071 6.60905 7.9921 6.67013 7.96185 6.72481C7.85772 6.90223 7.63784 6.96331 7.461 6.85918L6.50234 6.31005V4.89301L7.4546 4.34329C7.48543 4.32526 7.52208 4.30665 7.55872 4.30083C7.79664 4.24557 8.01071 4.4288 8.01071 4.65509V6.54157Z" fill="#212EA0"/>
</svg>
