<svg width="32" height="14" viewBox="0 0 32 14" fill="none" xmlns="http://www.w3.org/2000/svg">
<path d="M13.311 5.37207H15.4407V6.43898H13.311V5.37207Z" fill="#1774FF"/>
<path d="M31.4897 3.77779L27.8729 3.2604C27.2134 2.85455 26.529 2.49125 25.8234 2.17243C23.4931 1.11507 20.9639 0.569455 18.4054 0.572277H17.7772C14.7579 0.574447 11.7869 1.3334 9.13513 2.77989L7.30984 3.77736C5.17321 3.80145 3.07776 4.37072 1.22148 5.43069C0.467101 5.86409 0.00129991 6.66818 0 7.53912V10.7062C0 11.0009 0.238317 11.2397 0.53253 11.2397H2.32034C2.90184 12.9015 4.71803 13.7765 6.37693 13.194C7.29012 12.8735 8.00789 12.1542 8.32788 11.2397H22.5532C23.1347 12.9015 24.9509 13.7765 26.6098 13.194C27.5228 12.8735 28.2408 12.1542 28.5608 11.2397H28.7519C28.8197 11.2397 28.8868 11.2269 28.9499 11.2017L30.6744 10.5085C31.4449 10.2029 31.9494 9.45592 31.9466 8.62622V4.30582C31.9466 4.04062 31.7519 3.81556 31.4897 3.77779ZM7.41101 10.5997C7.17551 11.754 6.05044 12.4987 4.89807 12.2628C3.74548 12.0268 3.00215 10.8998 3.23765 9.74522C3.47336 8.59084 4.59844 7.84622 5.75081 8.08213C6.74242 8.28505 7.45434 9.15902 7.45413 10.173C7.45413 10.3162 7.43961 10.4592 7.41101 10.5997ZM17.0382 10.173H8.51897C8.51897 8.4055 7.08885 6.97268 5.32444 6.97268C3.56002 6.97268 2.12969 8.4055 2.12969 10.173H1.06484V7.53912C1.06549 7.05059 1.32678 6.59939 1.75011 6.35675C3.48766 5.36297 5.45356 4.83993 7.45413 4.83928H17.0382V10.173ZM17.0382 3.77258H9.54243L9.64513 3.71637C11.9215 2.47714 14.45 1.77462 17.0382 1.66241V3.77258ZM18.103 1.63897H18.4044C20.5501 1.63659 22.6763 2.0446 24.6693 2.84131L23.7396 3.77258H18.103V1.63897ZM27.6439 10.5997C27.4084 11.754 26.2833 12.4987 25.1308 12.2628C23.9784 12.0268 23.2351 10.8998 23.4706 9.74522C23.7061 8.59084 24.8313 7.84622 25.9837 8.08213C26.9753 8.28505 27.6872 9.15902 27.687 10.173C27.687 10.3162 27.6725 10.4592 27.6439 10.5997ZM30.8818 5.37252H29.2844V6.43944H30.8818V8.62622C30.8831 9.01926 30.6439 9.37301 30.2791 9.51734L28.7519 10.1317C28.7519 10.0827 28.7456 10.0341 28.7423 9.98504C28.7391 9.93599 28.738 9.87848 28.7328 9.82509C28.7274 9.7717 28.7168 9.71831 28.7083 9.66514C28.6997 9.61175 28.6934 9.55836 28.6828 9.50996C28.6721 9.46135 28.6565 9.40752 28.6427 9.35674C28.6288 9.30617 28.6182 9.25495 28.6022 9.20525C28.5864 9.15577 28.5671 9.10824 28.5491 9.05962C28.5309 9.01123 28.5144 8.96109 28.4958 8.91291C28.4772 8.86495 28.452 8.82133 28.4297 8.77597C28.4074 8.73061 28.3855 8.68091 28.3606 8.63512C28.3355 8.58932 28.3073 8.55026 28.2833 8.50772C28.2594 8.46497 28.2302 8.41635 28.1998 8.37273C28.1693 8.32889 28.1411 8.29438 28.1119 8.25488C28.0826 8.21538 28.0495 8.16894 28.0155 8.12792C27.9815 8.0869 27.9496 8.05478 27.9165 8.02114C27.8835 7.98772 27.8467 7.94236 27.8101 7.90503C27.7733 7.8677 27.7371 7.83819 27.7005 7.8052C27.6636 7.77221 27.6242 7.73314 27.5837 7.69842C27.5434 7.66391 27.5022 7.63722 27.4619 7.60683C27.4214 7.57645 27.3809 7.5439 27.3384 7.51546C27.2958 7.48725 27.2479 7.46229 27.2022 7.43234C27.1562 7.40239 27.119 7.37895 27.0759 7.35617C27.0327 7.33316 26.979 7.30907 26.93 7.28563C26.8811 7.26219 26.8427 7.24136 26.7975 7.22226C26.7522 7.20294 26.6909 7.18276 26.6378 7.16366C26.5845 7.14435 26.5498 7.12937 26.5045 7.11505C26.4439 7.09638 26.3817 7.08293 26.3197 7.06752C26.2792 7.05797 26.2404 7.04516 26.1995 7.0367C26.1341 7.02324 26.0669 7.01586 26.0004 7.0061C25.961 7.00089 25.9233 6.99221 25.8838 6.98852C25.7772 6.97788 25.6709 6.97202 25.5591 6.97202C23.7953 6.97376 22.3661 8.4055 22.3643 10.1723H18.1032V4.83906H23.96C24.1012 4.83906 24.2366 4.78285 24.3363 4.6828L25.717 3.29968C26.2966 3.57596 26.8601 3.88479 27.405 4.22466C27.4678 4.26394 27.538 4.28976 27.6114 4.3004L30.8818 4.7681V5.37252Z" fill="#1774FF"/>
</svg>
