<svg width="20" height="15" viewBox="0 0 20 15" fill="none" xmlns="http://www.w3.org/2000/svg">
<path d="M7.63886 14.165C7.45468 14.165 7.27805 14.0992 7.14782 13.982C7.01758 13.8647 6.94442 13.7058 6.94442 13.54C6.9424 12.0487 6.28327 10.6191 5.11161 9.56456C3.93995 8.51007 2.35142 7.91685 0.694442 7.91503C0.510265 7.91503 0.33363 7.84919 0.203397 7.73198C0.0731642 7.61477 0 7.4558 0 7.29004C0 7.12428 0.0731642 6.96531 0.203397 6.8481C0.33363 6.73089 0.510265 6.66504 0.694442 6.66504C2.71966 6.66719 4.66125 7.39221 6.09329 8.68105C7.52534 9.96989 8.33091 11.7173 8.3333 13.54C8.3333 13.7058 8.26014 13.8647 8.12991 13.982C7.99967 14.0992 7.82304 14.165 7.63886 14.165Z" fill="#212EA0"/>
<path d="M5.10415 14.167C4.91076 14.167 4.7253 14.1011 4.58855 13.9839C4.45181 13.8667 4.37498 13.7077 4.37498 13.542C4.37383 12.7135 3.98934 11.9192 3.30587 11.3334C2.6224 10.7475 1.69574 10.418 0.729164 10.417C0.535778 10.417 0.350312 10.3511 0.213567 10.2339C0.0768224 10.1167 0 9.95775 0 9.79199C0 9.62623 0.0768224 9.46726 0.213567 9.35005C0.350312 9.23284 0.535778 9.16699 0.729164 9.16699C2.08239 9.16832 3.37976 9.62968 4.33664 10.4499C5.29352 11.27 5.83177 12.3821 5.83331 13.542C5.83331 13.7077 5.75649 13.8667 5.61974 13.9839C5.483 14.1011 5.29753 14.167 5.10415 14.167Z" fill="#212EA0"/>
<path d="M1.87499 14.168C1.70923 14.168 1.55026 14.1021 1.43305 13.9849C1.31584 13.8677 1.25 13.7087 1.25 13.543C1.25 13.3772 1.18415 13.2182 1.06694 13.101C0.949728 12.9838 0.790757 12.918 0.624998 12.918C0.459238 12.918 0.300267 12.8521 0.183058 12.7349C0.0658478 12.6177 0 12.4587 0 12.293C0 12.1272 0.0658478 11.9682 0.183058 11.851C0.300267 11.7338 0.459238 11.668 0.624998 11.668C1.12228 11.668 1.59919 11.8655 1.95082 12.2171C2.30245 12.5688 2.49999 13.0457 2.49999 13.543C2.49999 13.7087 2.43414 13.8677 2.31693 13.9849C2.19972 14.1021 2.04075 14.168 1.87499 14.168Z" fill="#212EA0"/>
<path d="M19.3333 0H0.666664C0.489854 0 0.320285 0.0678433 0.195261 0.188605C0.0702376 0.309367 0 0.473154 0 0.643937V4.50756C0 4.67834 0.0702376 4.84213 0.195261 4.96289C0.320285 5.08365 0.489854 5.1515 0.666664 5.1515C2.96439 5.15405 5.16724 6.03683 6.79198 7.60618C8.41671 9.17553 9.33065 11.3033 9.3333 13.5227C9.3333 13.6935 9.40354 13.8572 9.52856 13.978C9.65358 14.0988 9.82315 14.1666 9.99996 14.1666H19.3333C19.5101 14.1666 19.6796 14.0988 19.8047 13.978C19.9297 13.8572 19.9999 13.6935 19.9999 13.5227V0.643937C19.9999 0.473154 19.9297 0.309367 19.8047 0.188605C19.6796 0.0678433 19.5101 0 19.3333 0Z" fill="#212EA0"/>
</svg>
