<svg width="18" height="18" viewBox="0 0 18 18" fill="none" xmlns="http://www.w3.org/2000/svg">
<path d="M14.3274 4.46618C14.4042 4.38784 14.4958 4.3256 14.597 4.28312C14.6981 4.24063 14.8067 4.21875 14.9164 4.21875C15.0261 4.21875 15.1346 4.24063 15.2358 4.28312C15.3369 4.3256 15.4285 4.38784 15.5053 4.46618C15.8271 4.7913 15.8316 5.31668 15.5166 5.64743L8.86443 13.5112C8.7889 13.5941 8.69725 13.6608 8.59508 13.7071C8.49291 13.7534 8.38236 13.7783 8.27021 13.7804C8.15806 13.7825 8.04666 13.7617 7.94282 13.7193C7.83898 13.6769 7.74489 13.6137 7.6663 13.5337L3.61855 9.43193C3.46245 9.27272 3.375 9.05865 3.375 8.83568C3.375 8.61271 3.46245 8.39863 3.61855 8.23943C3.69533 8.16109 3.78696 8.09885 3.88809 8.05637C3.98922 8.01388 4.0978 7.992 4.20749 7.992C4.31718 7.992 4.42577 8.01388 4.52689 8.05637C4.62802 8.09885 4.71965 8.16109 4.79643 8.23943L8.22993 11.7191L14.3049 4.49093C14.3119 4.48223 14.3194 4.47397 14.3274 4.46618Z" fill="#fff"/>
</svg>
