<svg width="43" height="45" viewBox="0 0 43 45" fill="none" xmlns="http://www.w3.org/2000/svg">
<g opacity="0.5">
<path fill-rule="evenodd" clip-rule="evenodd" d="M21.5002 11.2617C9.62611 11.2617 0 16.189 0 22.2666C0 27.1874 6.31152 31.354 15.0173 32.7617L21.5002 17.0405L27.983 32.7614C36.6894 31.3537 43 27.1871 43 22.2663C43 16.189 33.3745 11.2617 21.5002 11.2617ZM31.3732 27.7899L21.5002 16.1494L11.6643 27.757C6.82067 26.3844 3.62808 23.9815 3.62808 21.0276C3.62808 16.3422 11.5689 11.949 21.4813 11.949C31.3943 11.949 39.525 16.3422 39.525 21.0276C39.525 24.0043 36.2815 26.4224 31.3732 27.7899Z" fill="black"/>
</g>
</svg>
