<svg width="43" height="44" viewBox="0 0 43 44" fill="none" xmlns="http://www.w3.org/2000/svg">
<g opacity="0.5">
<path fill-rule="evenodd" clip-rule="evenodd" d="M31.9491 12.4712C28.484 11.5099 24.8868 11 21.2993 11C19.1413 11.0013 16.9869 11.1813 14.8572 11.5384C12.2933 11.9616 9.71995 12.5963 7.33468 13.6731C4.09469 15.1441 0 17.8556 0 21.9612C0 27.1435 6.54564 30.3165 10.6498 31.4605C14.1151 32.4222 17.7026 32.9221 21.2993 32.9221C23.4498 32.9221 25.6099 32.7492 27.7323 32.3934C30.3056 31.9605 32.8695 31.3357 35.255 30.2587C38.495 28.7877 42.5894 26.0765 42.5894 21.9612C42.5894 16.7788 36.0532 13.6155 31.9491 12.4712ZM11.429 14.5877C14.6595 13.8667 17.956 13.4531 21.2616 13.4531C23.2434 13.4531 25.2247 13.6069 27.1874 13.8766C29.5259 14.2034 31.8831 14.6552 34.0994 15.4918C36.6539 16.4532 40.9175 18.5879 40.9175 21.9241C40.9175 26.1063 34.2591 28.5487 31.0851 29.2697C27.8637 29.9909 24.5673 30.3945 21.2616 30.3945C19.2801 30.3945 17.2985 30.2504 15.3357 29.9812C12.9879 29.6445 10.64 29.2024 8.4144 28.3658C5.85998 27.4044 1.60583 25.2603 1.60583 21.9238C1.60583 17.751 8.26415 15.3089 11.429 14.5877Z" fill="black"/>
<path fill-rule="evenodd" clip-rule="evenodd" d="M7.29468 16.9219H10.8498V20.6018L13.6994 16.9219H16.9646L13.6994 21.5309L17.7181 26.9219H14.3949L10.8498 22.5061V26.9219H7.90339V17.6212L7.29468 17.3454V16.9219V16.9219ZM19.4568 17.3454V16.9219H22.9635V26.9219H20.0269V17.6212L19.4568 17.3454V17.3454ZM29.0881 17.6212L28.5277 17.3454V16.9219H32.759L36.2947 26.9219H33.4256L31.0488 20.3442L28.6723 26.9219H25.8326L29.0881 17.6212V17.6212Z" fill="black"/>
</g>
</svg>
