<svg width="43" height="43" viewBox="0 0 43 43" fill="none" xmlns="http://www.w3.org/2000/svg">
<g opacity="0.5">
<path fill-rule="evenodd" clip-rule="evenodd" d="M17.6599 20.2199C18.7291 19.1287 18.8539 19.0039 20.5005 19.0039V24.2593H19.1988V20.4352L15.4677 24.2593H13.6987C13.6987 24.2593 16.9601 20.9343 17.6599 20.2199V20.2199Z" fill="black"/>
<path fill-rule="evenodd" clip-rule="evenodd" d="M20.865 19.0137H22.1666V23.1339L25.0659 23.129L25.0684 24.2691H20.8748L20.865 19.0137Z" fill="black"/>
<path fill-rule="evenodd" clip-rule="evenodd" d="M29.1251 19.0073L25.3132 19V24.2603H26.6222L26.6149 22.533H29.1227C29.864 22.533 30.4659 21.9311 30.4659 21.1898V20.3506C30.4659 19.6092 29.864 19.0073 29.1227 19.0073H29.1251ZM29.245 20.9916C29.245 21.1996 29.0762 21.3708 28.8658 21.3708H26.6198V20.1671H28.8658C29.0738 20.1671 29.245 20.3359 29.245 20.5463V20.994V20.9916Z" fill="black"/>
<path fill-rule="evenodd" clip-rule="evenodd" d="M30.7422 19.0039H32.0438V24.2618L30.7422 24.2642V19.0039Z" fill="black"/>
<path fill-rule="evenodd" clip-rule="evenodd" d="M32.3572 19.0044C33.7738 19.0044 33.9524 19.2099 34.5641 19.9243C34.6179 19.988 36.4945 22.3735 36.4945 22.3735V19.002H37.7692V24.2647H36.3575L33.6245 20.7636V24.2647H32.3572C32.3572 24.2647 32.3572 18.9995 32.3572 19.002V19.0044Z" fill="black"/>
<path fill-rule="evenodd" clip-rule="evenodd" d="M38.0723 20.423C38.0723 19.4174 38.4858 19.0039 39.4913 19.0039H42.9925L42.9998 20.122H39.3788V21.0616H42.5399V22.1063L39.3739 22.1136V23.1119H42.9998L42.9925 24.2618H38.0723V20.4254V20.423Z" fill="black"/>
<path fill-rule="evenodd" clip-rule="evenodd" d="M5.16491 19.002H6.57419L1.43374 24.2672H0L5.16491 19.002Z" fill="black"/>
<path fill-rule="evenodd" clip-rule="evenodd" d="M7.89782 19.002H9.3071L4.16666 24.2672H2.73291L7.89782 19.002Z" fill="black"/>
<path fill-rule="evenodd" clip-rule="evenodd" d="M10.6183 19.002H12.0276L6.88711 24.2672H5.45337L10.6183 19.002Z" fill="black"/>
<path fill-rule="evenodd" clip-rule="evenodd" d="M13.3368 19.002H14.7485L9.60561 24.2672H8.17432L13.3368 19.002Z" fill="black"/>
<path fill-rule="evenodd" clip-rule="evenodd" d="M16.0572 19.002H17.469L12.3261 24.2672H10.8923L16.0572 19.002Z" fill="black"/>
</g>
</svg>
