<svg width="43" height="43" viewBox="0 0 43 43" fill="none" xmlns="http://www.w3.org/2000/svg">
<path opacity="0.5" d="M1.88843 13.5529C1.88843 9.38189 10.342 6 20.7701 6C31.1982 6 39.6529 9.38189 39.6529 13.5529C39.6529 17.7239 31.1993 21.1058 20.7701 21.1058C10.3408 21.1058 1.88843 17.7239 1.88843 13.5529ZM24.9818 14.2142C24.9759 14.1886 24.955 14.1688 24.9306 14.1654C24.41 14.0886 23.8626 14.0259 23.2943 13.9782C23.2618 13.9724 23.2397 13.9422 23.2606 13.8713C25.0062 12.0351 25.6686 9.698 24.7865 7.86992C24.79 7.83505 24.8214 7.81065 24.8574 7.81414C30.8623 8.54281 35.2471 10.8358 35.2471 13.5517C35.2471 16.8546 28.7658 19.5311 20.7712 19.5311C12.7767 19.5311 6.29535 16.8534 6.29535 13.5517C6.29535 10.6893 11.1671 8.29527 17.6729 7.70954C17.7043 7.70954 17.731 7.73511 17.7322 7.78508L16.3202 15.5634C16.3085 15.6215 16.3027 15.682 16.3027 15.7424C16.3027 16.2642 16.7258 16.6861 17.2464 16.6861L17.2975 16.6884C18.5573 16.6222 19.9112 16.2294 21.1908 15.4914C21.5592 15.2775 21.9078 15.0451 22.2344 14.7964C22.2542 14.7801 22.282 14.7778 22.3041 14.7894C22.7295 15.073 22.9747 15.4054 22.9747 15.7598C22.9747 16.2421 22.5226 16.6826 21.7788 17.0161C20.9142 17.4043 19.6556 17.6484 18.254 17.6484C17.0663 17.6484 15.982 17.4729 15.1394 17.1812C15.1057 17.1754 15.072 17.1986 15.0662 17.2323L14.9465 17.8924C14.943 17.9238 14.9628 17.954 14.9953 17.9621C16.7072 18.3608 18.6759 18.5874 20.7724 18.5874C23.3791 18.5874 25.4931 17.7425 25.4931 16.6989C25.4931 16.2933 25.1735 15.9179 24.6296 15.6099C24.1543 15.3763 23.8533 15.0742 23.9277 14.8708C24.0044 14.6604 24.4599 14.6267 25.0015 14.772C25.0317 14.7766 25.0619 14.7569 25.0724 14.7023L24.9829 14.213L24.9818 14.2142ZM20.7701 9.45278C20.7701 9.49346 20.7701 9.53414 20.7666 9.57365C20.8352 10.9601 19.9786 12.8149 18.4132 14.3792C18.0925 14.6999 17.7601 14.9893 17.4219 15.2496C17.4091 15.2578 17.3917 15.2613 17.3754 15.2578C17.3429 15.2508 17.3208 15.2194 17.3278 15.1811L18.8606 6.73449C18.8595 6.70195 18.8328 6.67638 18.8014 6.67522C10.3432 7.07268 3.77578 10.0002 3.77578 13.5529C3.77578 17.3764 11.3845 20.4771 20.7701 20.4771C30.1557 20.4771 37.7644 17.3776 37.7644 13.5529C37.7644 9.72822 30.1557 6.62989 20.7701 6.62989C20.4726 6.62989 20.1774 6.63338 19.8799 6.63919C19.8508 6.63919 19.8252 6.65895 19.8183 6.68684L19.6393 7.67351C19.6346 7.70024 19.6474 7.72465 19.6695 7.73743C20.3192 8.03611 20.7701 8.69273 20.7701 9.45395V9.45278Z" fill="black"/>
<path opacity="0.5" d="M15.5812 31.6214L14.0994 27.4946L12.6177 31.6214H15.5812ZM16.1146 24.8867L20.4216 36.2108H17.1222L16.1739 33.5367H12.0261L11.0778 36.2108H8.43042L12.6979 24.8867H16.1158H16.1146Z" fill="black"/>
<path opacity="0.5" d="M23.9348 34.1259H25.3572C26.2068 34.1259 27.3329 33.9771 28.0639 33.0032C28.7949 32.0282 28.8147 30.8904 28.8147 30.4279C28.8147 29.8328 28.7357 28.6288 27.8861 27.7863C27.0958 27.0262 26.0685 26.9611 25.298 26.9611H23.9348V34.1259V34.1259ZM20.7737 24.8809H25.4154C26.7588 24.8809 28.7938 25.0133 30.3534 26.3498C31.6178 27.4237 32.2105 29.1727 32.2105 30.5266C32.2105 31.5168 31.8944 33.5471 30.1558 34.9185C28.7728 36.0074 27.2121 36.2061 25.7512 36.2061H20.7737V24.8809Z" fill="black"/>
<path opacity="0.5" d="M38.1608 31.6168L36.679 27.4899L35.1973 31.6168H38.1608ZM38.6942 24.8809L43 36.205H39.7007L38.7523 33.5308H34.6046L33.6563 36.205H31.01L35.2775 24.8809H38.6954H38.6942Z" fill="black"/>
</svg>
