<svg width="197" height="40" viewBox="0 0 197 40" fill="none" xmlns="http://www.w3.org/2000/svg">
<path fill-rule="evenodd" clip-rule="evenodd" d="M187.927 39.9973H95.2326V37.2652H193.449V8.40464C193.449 5.37706 190.968 2.89816 187.924 2.89816H95.2326V0.166016H187.927C192.481 0.166016 196.19 3.86608 196.19 8.40183V39.9973H187.927ZM84.9875 39.9973H8.2633C3.71241 39.9973 0 36.3 0 31.7615V0.166016H83.6465L81.8284 2.89816H2.74126V31.7615C2.74126 34.7919 5.22843 37.268 8.26612 37.268H84.9875V40.0001V39.9973Z" fill="#008BD2"/>
<path fill-rule="evenodd" clip-rule="evenodd" d="M84.9874 22.1885V13.9612L79.519 22.1885H84.9874ZM187.927 35.7958H95.2325V31.2432H100.023V22.1885H95.2325V4.36914H187.927C190.155 4.36914 191.975 6.18682 191.975 8.40404V35.7958H187.927ZM84.9874 35.7958H8.26321C6.04141 35.7958 4.21484 33.9809 4.21484 31.7609V4.36914H80.8487L67.8905 23.8402L67.5207 24.3945V31.2432H84.9874V35.7958Z" fill="#1D1D1B"/>
<path d="M97.8242 29.049H93.0305V39.9973H87.1867V29.049H69.72V25.0479L86.3934 0H93.0334V24.381H97.827V29.049H97.8242ZM87.1895 24.381V9.56108C87.1895 8.50312 87.2262 7.33542 87.2996 6.03266H87.1895C86.9778 6.59822 86.5402 7.47329 85.8824 8.64943L75.4283 24.381H87.1895Z" fill="#008BD2"/>
<path d="M22.1304 10.341V14.1677C21.5263 14.0157 20.9899 13.9369 20.5269 13.9369C19.1125 13.9369 17.9692 14.3984 17.1081 15.3213C15.8829 16.61 15.2731 18.3517 15.2731 20.5436C15.2731 22.7355 15.8687 24.3928 17.0601 25.7912C17.9861 26.8661 19.1266 27.4063 20.4789 27.4063C20.9532 27.4063 21.5037 27.3022 22.1304 27.0855V31.0501C21.4614 31.2865 20.8008 31.4018 20.143 31.4018C18.6439 31.4018 17.2493 31.0417 15.9676 30.3101C14.189 29.3197 12.8367 27.7665 11.9135 25.6562C11.236 24.0777 10.8972 22.381 10.8972 20.5605C10.8972 17.3725 11.891 14.7473 13.8841 12.682C15.626 10.8784 17.6388 9.97802 19.9425 9.97802C20.6539 9.97802 21.3795 10.099 22.1304 10.3438V10.341ZM28.7422 10.2059H33.1181L38.1404 31.1711H33.7335L32.9487 27.6539H28.7394L28.0026 31.1711H23.8413L28.7366 10.2059H28.7422ZM32.3361 24.4294L31.6416 21.157C31.252 19.2324 30.964 17.381 30.7777 15.6111C30.6506 17.6708 30.3994 19.6488 30.0042 21.5397L29.3887 24.4294H32.3332H32.3361ZM39.8907 10.2059H44.419C46.4545 10.2059 47.9734 10.5295 48.9784 11.1851C49.8423 11.7619 50.4944 12.5695 50.9348 13.6134C51.2877 14.4631 51.4599 15.3579 51.4599 16.3033C51.4599 17.5132 51.2171 18.5402 50.7344 19.3956C50.2573 20.251 49.4922 20.9994 48.4561 21.6353L52.1234 31.1711H47.7475L44.0492 21.5087V31.1711H39.8879V10.2059H39.8907ZM44.052 19.2071C44.34 19.238 44.5743 19.2549 44.7465 19.2549C45.5878 19.2549 46.2456 18.9989 46.7143 18.4839C47.1885 17.9747 47.4257 17.2684 47.4257 16.3652C47.4257 14.9808 46.9994 14.0889 46.1468 13.6921C45.8419 13.5515 45.1418 13.4783 44.052 13.4783V19.2071ZM63.5147 10.8981V14.9358C62.425 14.0495 61.4115 13.6049 60.4798 13.6049C59.8587 13.6049 59.3647 13.7934 58.9807 14.1649C58.6024 14.5363 58.4133 15.0287 58.4133 15.6477C58.4133 16.2189 58.5714 16.7338 58.8904 17.1784C59.2066 17.6286 59.7938 18.1744 60.6464 18.8075C61.6514 19.5616 62.36 20.1272 62.7807 20.5014C63.1957 20.8784 63.5316 21.2611 63.7857 21.6494C64.4209 22.5976 64.7428 23.7316 64.7428 25.04C64.7428 26.3483 64.4266 27.6342 63.8026 28.74C63.2296 29.7839 62.3939 30.5324 61.2929 30.9938C60.477 31.3343 59.6301 31.5031 58.7464 31.5031C57.3744 31.5031 56.1576 31.1514 55.1131 30.4451V26.4834C56.2225 27.2319 57.253 27.6061 58.21 27.6061C58.961 27.6061 59.5623 27.3922 60.014 26.9617C60.4544 26.5312 60.6774 25.9769 60.6774 25.2904C60.6774 24.7023 60.5419 24.2465 60.2681 23.9173C59.9999 23.5824 59.3054 23.0366 58.1959 22.2825C57.1175 21.5425 56.296 20.8419 55.7341 20.175C54.7969 19.0889 54.3311 17.7271 54.3311 16.0754C54.3311 14.2549 54.8674 12.7299 55.9346 11.4974C56.8775 10.4113 58.1705 9.87109 59.8164 9.87109C61.0473 9.87109 62.2838 10.2116 63.5147 10.8981ZM103.321 10.2059H111.683V14.0917H107.479V18.6359H111.192V22.6004H107.479V27.3191H111.728V31.1711H103.318V10.2059H103.321ZM114.54 10.2059H118.701V24.1199C118.701 25.5042 118.834 26.4159 119.102 26.8661C119.455 27.457 120.011 27.758 120.779 27.758C121.79 27.758 122.419 27.3219 122.679 26.4525C122.778 26.1064 122.831 25.3298 122.831 24.1199V10.2059H126.993V25.8391C126.993 26.6297 126.945 27.2544 126.846 27.7158C126.75 28.1773 126.566 28.6162 126.298 29.0467C125.293 30.6871 123.441 31.5059 120.754 31.5059C118.924 31.5059 117.476 31.1064 116.403 30.3101C115.367 29.5279 114.763 28.3545 114.588 26.776C114.557 26.5509 114.54 26.036 114.54 25.2397V10.2059ZM130.273 10.2059H134.802C136.837 10.2059 138.356 10.5295 139.361 11.1851C140.225 11.7619 140.877 12.5695 141.317 13.6134C141.67 14.4631 141.842 15.3579 141.842 16.3033C141.842 17.5132 141.6 18.5402 141.117 19.3956C140.637 20.251 139.875 20.9994 138.839 21.6353L142.506 31.1711H138.13L134.432 21.5087V31.1711H130.27V10.2059H130.273ZM134.435 19.2071C134.722 19.238 134.954 19.2549 135.129 19.2549C135.97 19.2549 136.628 18.9989 137.097 18.4839C137.571 17.9747 137.808 17.2684 137.808 16.3652C137.808 14.9808 137.382 14.0889 136.529 13.6921C136.224 13.5515 135.524 13.4783 134.437 13.4783V19.2071H134.435ZM151.692 9.87109C153.222 9.87109 154.637 10.4001 155.933 11.4552C157.031 12.3584 157.833 13.5571 158.341 15.0624C158.852 16.5678 159.103 18.4952 159.103 20.8503C159.103 24.1902 158.468 26.7648 157.195 28.5768C156.605 29.4153 155.848 30.1019 154.911 30.6309C153.875 31.2133 152.807 31.5059 151.706 31.5059C150.188 31.5059 148.776 30.9769 147.483 29.9218C145.368 28.1913 144.313 25.1131 144.313 20.6787C144.313 18.9173 144.465 17.4035 144.776 16.1288C145.081 14.8486 145.563 13.7428 146.221 12.8002C146.811 11.9617 147.568 11.2751 148.505 10.7462C149.499 10.1862 150.56 9.89079 151.692 9.87109ZM151.709 13.6809C150.899 13.6809 150.227 14.1592 149.694 15.1075C149.067 16.2245 148.751 18.0534 148.751 20.6027C148.751 23.3602 149.118 25.2848 149.86 26.3737C150.371 27.1446 150.987 27.5273 151.706 27.5273C152.517 27.5273 153.191 27.049 153.722 26.1007C154.349 24.9837 154.665 23.1801 154.665 20.6955C154.665 17.8706 154.298 15.915 153.556 14.8345C153.045 14.0748 152.429 13.6921 151.709 13.6809ZM161.898 10.2059H166.937C168.467 10.2059 169.647 10.431 170.466 10.8812C171.434 11.4215 172.166 12.2346 172.671 13.3095C173.111 14.269 173.334 15.3072 173.334 16.4074C173.334 18.0056 172.914 19.3534 172.072 20.4479C170.963 21.8801 169.269 22.5976 167.002 22.5976C166.723 22.5976 166.406 22.5779 166.059 22.5414V31.1711H161.898V10.2059ZM166.059 19.0664C167.059 19.0776 167.764 18.951 168.191 18.6837C168.868 18.2532 169.207 17.4935 169.207 16.399C169.207 15.4226 169.007 14.7051 168.611 14.238C168.216 13.7709 167.601 13.5402 166.771 13.5402C166.635 13.5402 166.398 13.5458 166.059 13.5571V19.0664ZM175.61 10.2059H183.972V14.0917H179.768V18.6359H183.481V22.6004H179.768V27.3191H184.017V31.1711H175.607V10.2059H175.61Z" fill="white"/>
</svg>
