<svg width="43" height="43" viewBox="0 0 43 43" fill="none" xmlns="http://www.w3.org/2000/svg">
<g opacity="0.5">
<path fill-rule="evenodd" clip-rule="evenodd" d="M38.011 19.2603C38.7136 19.2985 39.2201 19.8051 39.2965 20.4694C39.3347 20.8207 39.3347 21.3654 39.3347 21.7167C39.3347 22.1443 39.3347 22.4956 39.2965 22.8469C39.1794 23.6665 38.5939 24.1323 38.011 24.1323H36.9979C36.4532 24.1323 35.8296 23.6639 35.7125 22.8469C35.6743 22.4956 35.6743 22.1443 35.6743 21.7549C35.6743 21.3654 35.6743 20.8181 35.7125 20.4694C35.7914 19.8076 36.3361 19.3011 37.0387 19.2603C37.1939 19.2222 37.311 19.2222 37.507 19.2222L38.0136 19.2603H38.011ZM37.6216 17C38.3623 17 39.0648 17.0382 39.6477 17.1171C41.2845 17.3131 42.6106 18.5985 42.883 20.1971C42.9212 20.4694 43.0001 21.0931 43.0001 21.7167C43.0001 22.3785 42.9212 23.0021 42.883 23.2363C42.6106 24.873 41.2845 26.1203 39.6477 26.3545C39.0623 26.3926 38.3623 26.4716 37.6216 26.4716H37.3874C36.6085 26.4716 35.9441 26.3926 35.3205 26.3545C33.6838 26.1203 32.3958 24.873 32.1234 23.2363C32.0853 23.0021 32.0063 22.3785 32.0063 21.7167C32.0063 21.0931 32.0853 20.4694 32.1234 20.1971C32.3958 18.5985 33.6838 17.3131 35.3205 17.1171C35.9441 17.0382 36.6059 17 37.3467 17H37.619H37.6216Z" fill="black"/>
<path fill-rule="evenodd" clip-rule="evenodd" d="M23.5452 21.7167C23.5452 21.2101 23.5833 20.7036 23.7004 20.1971C23.9728 18.5985 25.2608 17.3131 26.8975 17.1171C27.483 17.0382 28.1829 17 28.9237 17C29.7433 17 30.484 17.0382 31.1076 17.1171C31.3418 17.1553 31.4971 17.3513 31.4971 17.5854V18.988C31.4971 19.2603 31.3011 19.4563 31.0695 19.4563C31.0695 19.4563 30.3287 19.4182 29.9393 19.4182C29.4709 19.4182 29.0815 19.4182 28.6539 19.4563C27.9513 19.4945 27.4448 20.0011 27.3684 20.6654C27.3302 21.0167 27.2895 21.368 27.2895 21.7167V21.7549C27.2895 22.1061 27.3277 22.4574 27.3684 22.8061C27.4473 23.4679 27.9131 23.9745 28.6539 24.0534C29.0433 24.0916 29.5117 24.1323 29.9393 24.1323C30.3287 24.1323 31.0695 24.0941 31.0695 24.0941C31.3036 24.0941 31.4971 24.2901 31.4971 24.5625V25.965C31.4971 26.1992 31.3418 26.3926 31.1076 26.4334C30.484 26.4334 29.7433 26.4716 28.9237 26.4716C28.1829 26.4716 27.4804 26.3926 26.8975 26.3545C25.2608 26.1203 23.9728 24.873 23.7004 23.2363C23.5833 22.768 23.5452 22.2614 23.5452 21.7549C23.5452 20.1563 23.5452 23.3152 23.5452 21.7167Z" fill="black"/>
<path fill-rule="evenodd" clip-rule="evenodd" d="M22.4939 24.0168C22.7662 24.0168 22.9622 24.251 22.9622 24.4851V25.8877C22.9622 26.16 22.7662 26.356 22.4939 26.356H16.9194C15.9063 26.356 15.0867 25.5364 15.0867 24.5233V18.987C15.0867 17.9739 15.9063 17.1543 16.9194 17.1543H22.4939C22.7662 17.1543 22.9622 17.3503 22.9622 17.5819V18.9488C22.9622 19.2212 22.7662 19.4172 22.4939 19.4172H19.0626C18.7903 19.4172 18.5943 19.5725 18.5943 19.8474V20.7052L21.519 20.667C21.7532 20.667 21.9873 20.9012 21.9873 21.1354V22.3063C21.9873 22.5786 21.7532 22.7746 21.519 22.7746H18.5943V23.5535C18.5943 23.8259 18.7903 24.0219 19.0626 24.0219H22.4939V24.0168Z" fill="black"/>
<path fill-rule="evenodd" clip-rule="evenodd" d="M8.30326 26.356C7.48363 26.356 6.78364 25.8113 6.54946 25.0706L4.64038 17.7016V17.5845C4.64038 17.3503 4.83638 17.1568 5.10874 17.1568H7.95453C8.18871 17.1568 8.38217 17.3121 8.42289 17.5081L9.90434 23.6681C9.90434 23.747 9.98325 23.8233 10.1003 23.8233C10.1792 23.8233 10.2556 23.7444 10.2556 23.6681L11.7727 17.5056C11.8109 17.3096 12.0069 17.1543 12.2003 17.1543H13.7988C14.0712 17.1543 14.2672 17.3503 14.2672 17.5819V17.699L12.4345 24.9102C12.2385 25.7299 11.5767 26.3535 10.64 26.3535H8.30071L8.30326 26.356Z" fill="black"/>
<path fill-rule="evenodd" clip-rule="evenodd" d="M0.46836 17.1543H3.23525C3.50761 17.1543 3.70361 17.3503 3.70361 17.5819V25.8877C3.70361 26.16 3.50761 26.356 3.23525 26.356H0.46836C0.23418 26.356 0 26.16 0 25.8877V17.5845C0 17.3503 0.23418 17.1543 0.46836 17.1543Z" fill="black"/>
</g>
</svg>
