<svg width="43" height="43" viewBox="0 0 43 43" fill="none" xmlns="http://www.w3.org/2000/svg">
<path opacity="0.5" fill-rule="evenodd" clip-rule="evenodd" d="M9.07972 3.92997L8.28454 5.15239L9.809 5.08319L9.07972 3.92997ZM15.3324 3.48954C14.9074 3.48954 13.1347 3.59937 13.1347 3.59937V4.12107C13.1347 4.12107 15.0523 4.09691 15.3324 4.08483C15.6114 4.07275 15.7575 3.48954 15.3324 3.48954ZM15.2951 4.89868C14.7492 4.91076 13.0864 4.98325 13.0864 4.98325L13.0622 5.52911H15.3445C15.6839 5.52911 15.842 4.88659 15.2951 4.89868ZM19.4675 3.36324L18.668 4.82619H20.2034L19.4675 3.36324V3.36324ZM25.9575 4.02662C25.9575 3.81245 26.0212 3.4533 25.4039 3.4533C24.7867 3.4533 23.5148 3.41046 23.5148 3.41046V4.45166C23.5148 4.45166 24.8734 4.47253 25.4468 4.47253C26.0201 4.47253 25.9575 4.24079 25.9575 4.02662V4.02662ZM25.9575 4.02662C25.9575 3.81245 26.0212 3.4533 25.4039 3.4533C24.7867 3.4533 23.5148 3.41046 23.5148 3.41046V4.45166C23.5148 4.45166 24.8734 4.47253 25.4468 4.47253C26.0201 4.47253 25.9575 4.24079 25.9575 4.02662V4.02662ZM19.4675 3.36324L18.668 4.82619H20.2034L19.4675 3.36324ZM15.2951 4.89868C14.7492 4.91076 13.0864 4.98325 13.0864 4.98325L13.0622 5.52911H15.3445C15.6839 5.52911 15.842 4.88659 15.2951 4.89868ZM15.3324 3.48954C14.9074 3.48954 13.1347 3.59937 13.1347 3.59937V4.12107C13.1347 4.12107 15.0523 4.09691 15.3324 4.08483C15.6114 4.07275 15.7575 3.48954 15.3324 3.48954ZM9.07972 3.92997L8.28454 5.15239L9.809 5.08319L9.07972 3.92997ZM9.07972 3.92997L8.28454 5.15239L9.809 5.08319L9.07972 3.92997ZM15.3324 3.48954C14.9074 3.48954 13.1347 3.59937 13.1347 3.59937V4.12107C13.1347 4.12107 15.0523 4.09691 15.3324 4.08483C15.6114 4.07275 15.7575 3.48954 15.3324 3.48954ZM15.2951 4.89868C14.7492 4.91076 13.0864 4.98325 13.0864 4.98325L13.0622 5.52911H15.3445C15.6839 5.52911 15.842 4.88659 15.2951 4.89868ZM19.4675 3.36324L18.668 4.82619H20.2034L19.4675 3.36324V3.36324ZM25.9575 4.02662C25.9575 3.81245 26.0212 3.4533 25.4039 3.4533C24.7867 3.4533 23.5148 3.41046 23.5148 3.41046V4.45166C23.5148 4.45166 24.8734 4.47253 25.4468 4.47253C26.0201 4.47253 25.9575 4.24079 25.9575 4.02662V4.02662ZM40.1641 7.66422H28.5495V8.5275H39.6732C39.9027 8.28148 40.1268 8.06072 40.3234 7.87071C40.2707 7.80151 40.2169 7.73232 40.1641 7.66422ZM25.9575 4.02662C25.9575 3.81245 26.0212 3.4533 25.4039 3.4533C24.7867 3.4533 23.5148 3.41046 23.5148 3.41046V4.45166C23.5148 4.45166 24.8734 4.47253 25.4468 4.47253C26.0201 4.47253 25.9575 4.24079 25.9575 4.02662V4.02662ZM19.4675 3.36324L18.668 4.82619H20.2034L19.4675 3.36324ZM15.2951 4.89868C14.7492 4.91076 13.0864 4.98325 13.0864 4.98325L13.0622 5.52911H15.3445C15.6839 5.52911 15.842 4.88659 15.2951 4.89868ZM15.3324 3.48954C14.9074 3.48954 13.1347 3.59937 13.1347 3.59937V4.12107C13.1347 4.12107 15.0523 4.09691 15.3324 4.08483C15.6114 4.07275 15.7575 3.48954 15.3324 3.48954ZM9.07972 3.92997L8.28454 5.15239L9.809 5.08319L9.07972 3.92997ZM40.1641 7.66422H28.5495V8.5275H39.6732C39.9027 8.28148 40.1268 8.06072 40.3234 7.87071C40.2707 7.80151 40.2169 7.73232 40.1641 7.66422V7.66422ZM9.07972 3.92997L8.28454 5.15239L9.809 5.08319L9.07972 3.92997ZM3.59914 7.66422C3.54093 7.73781 3.48382 7.8125 3.42671 7.88718C3.61781 8.0739 3.83638 8.28916 4.06043 8.5275H15.1995V7.66422H3.59914ZM15.3324 3.48954C14.9074 3.48954 13.1347 3.59937 13.1347 3.59937V4.12107C13.1347 4.12107 15.0523 4.09691 15.3324 4.08483C15.6114 4.07275 15.7575 3.48954 15.3324 3.48954V3.48954ZM15.2951 4.89868C14.7492 4.91076 13.0864 4.98325 13.0864 4.98325L13.0622 5.52911H15.3445C15.6839 5.52911 15.842 4.88659 15.2951 4.89868ZM19.4675 3.36324L18.668 4.82619H20.2034L19.4675 3.36324V3.36324ZM25.9575 4.02662C25.9575 3.81245 26.0212 3.4533 25.4039 3.4533C24.7867 3.4533 23.5148 3.41046 23.5148 3.41046V4.45166C23.5148 4.45166 24.8734 4.47253 25.4468 4.47253C26.0201 4.47253 25.9575 4.24079 25.9575 4.02662V4.02662ZM40.1641 7.66422H28.5495V8.5275H39.6732C39.9027 8.28148 40.1268 8.06072 40.3234 7.87071C40.2707 7.80151 40.2169 7.73232 40.1641 7.66422ZM40.1641 7.66422H28.5495V8.5275H39.6732C39.9027 8.28148 40.1268 8.06072 40.3234 7.87071C40.2707 7.80151 40.2169 7.73232 40.1641 7.66422ZM3.42671 7.88718C3.61781 8.0739 3.83638 8.28916 4.06043 8.5275H15.1995V7.66422H3.59914C3.54093 7.73781 3.48382 7.8125 3.42671 7.88718ZM25.9575 4.02662C25.9575 3.81245 26.0212 3.4533 25.4039 3.4533C24.7867 3.4533 23.5148 3.41046 23.5148 3.41046V4.45166C23.5148 4.45166 24.8734 4.47253 25.4468 4.47253C26.0201 4.47253 25.9575 4.24079 25.9575 4.02662V4.02662ZM18.668 4.82619H20.2034L19.4675 3.36324L18.668 4.82619ZM15.2951 4.89868C14.7492 4.91076 13.0864 4.98325 13.0864 4.98325L13.0622 5.52911H15.3445C15.6839 5.52911 15.842 4.88659 15.2951 4.89868ZM15.3324 3.48954C14.9074 3.48954 13.1347 3.59937 13.1347 3.59937V4.12107C13.1347 4.12107 15.0523 4.09691 15.3324 4.08483C15.6114 4.07275 15.7575 3.48954 15.3324 3.48954ZM8.28454 5.15239L9.809 5.08319L9.07972 3.92997L8.28454 5.15239V5.15239ZM41.7501 7.79932C41.7501 7.79932 40.9417 6.68014 39.7105 5.15019C38.4793 3.62024 38.4925 2.09139 38.4925 2.09139C38.4925 2.09139 35.8434 0.972212 33.493 0.0507284C32.5715 0.561443 30.8439 0.972212 27.9828 0.461497C25.1228 -0.0481196 21.8256 0.00130438 21.8256 0.00130438C21.8256 0.00130438 18.6273 -0.0305466 15.7662 0.47907C12.9062 0.988687 11.1775 0.579016 10.2571 0.0683014C7.90672 0.988687 5.25759 2.10787 5.25759 2.10787C5.25759 2.10787 5.27077 3.63781 4.03956 5.16776C2.80726 6.69771 2 7.81689 2 7.81689C2 7.81689 4.86 10.2672 4.54918 11.3864C4.23836 12.5056 0.767694 23.5249 3.72764 29.5437C6.68759 35.5635 11.2401 39.0089 16.9854 40.1534C20.0453 40.7618 21.886 43.0002 21.886 43.0002C21.886 43.0002 23.7048 40.7454 26.7647 40.1358C32.51 38.9914 37.0614 35.546 40.0214 29.5272C42.9813 23.5074 39.5117 12.488 39.2009 11.3688C38.8901 10.2497 41.7501 7.79932 41.7501 7.79932V7.79932ZM9.92212 3.10843L11.9309 6.15185V2.82177C11.9309 2.82177 14.9996 2.57135 15.8717 2.57135C16.7437 2.57135 16.8382 3.02825 16.8382 3.63452C16.8382 4.24079 16.356 4.39235 16.3011 4.39235C16.2462 4.39235 16.2583 4.48022 16.3055 4.48022C16.3527 4.48022 16.925 4.46374 16.925 4.91076V5.62576L18.7218 2.33851L20.3539 2.32643L22.2715 6.09913V2.39123C22.2715 2.39123 25.4907 2.47141 26.2397 2.55049C26.9888 2.63066 27.0997 3.09195 27.0997 3.09195L27.0843 2.63066C27.0843 2.63066 28.5495 2.66251 30.4781 2.82177C32.4057 2.98102 33.5139 3.13479 33.5139 3.13479V4.4253L36.1696 4.6911V3.61804L37.3612 3.80915V6.35614H36.1674V5.4665C36.1674 5.4665 35.7841 5.4028 34.9395 5.35557C34.0949 5.30725 33.4985 5.28199 33.4985 5.28199V6.34845H32.2794V3.9058C32.2794 3.9058 31.9224 3.84649 31.1393 3.79927C30.3562 3.75094 29.9685 3.75204 29.9685 3.75204V6.34076H28.7417V3.61036H27.1393V3.88384C27.1393 4.947 26.5407 5.00192 26.4583 5.00192C26.3759 5.00192 26.4144 5.07331 26.4528 5.07331C26.4913 5.07331 27.0448 5.03706 27.0448 5.4687V6.36492H25.8213V5.85311C25.8213 5.85311 25.9344 5.48298 25.3358 5.48298H23.4346L23.4379 6.35723L20.9744 6.36053L20.6526 5.71912H18.1803L17.8344 6.35943L16.5197 6.35174C16.5197 6.35174 16.5021 6.32648 16.5241 6.12769C16.1638 6.41764 15.864 6.36163 15.864 6.36163L10.6119 6.36932L10.2999 5.8575H7.82654L7.49046 6.37371H6.13295L8.3109 3.31381L9.92212 3.10843V3.10843ZM3.93193 8.71201C3.67273 8.43414 3.41902 8.18482 3.20375 7.97834C3.16421 7.9399 3.15872 7.8773 3.19277 7.83337C3.28063 7.71585 3.36959 7.60052 3.45856 7.4863C3.47943 7.45994 3.51128 7.44456 3.54532 7.44456H40.2179C40.252 7.44456 40.2838 7.45994 40.3047 7.4863C40.3893 7.59503 40.4739 7.70486 40.5573 7.81579C40.5903 7.85973 40.5859 7.92233 40.5452 7.96077C40.3267 8.17165 40.0675 8.42645 39.8017 8.71201C39.7808 8.73508 39.7523 8.74716 39.7215 8.74716H4.01211C3.98135 8.74716 3.9528 8.73508 3.93193 8.71201ZM4.58543 29.3262C2.25591 24.5881 4.11315 16.7264 5.46957 11.8455C5.72218 10.9383 5.10163 9.90917 4.38663 9.05908H39.3481C38.6397 9.90588 38.029 10.9262 38.2794 11.829C38.5463 12.7878 38.8319 13.8642 39.1021 15.0075L34.6912 17.0131L29.0932 10.4726C29.0756 10.4517 28.9833 10.4155 28.957 10.4177L20.031 11.281C19.8311 11.3007 19.797 11.5028 19.9816 11.5852L25.5709 14.0937L22.7888 15.3228C22.6076 15.4029 22.634 15.5973 22.8295 15.6259L28.3375 16.4441C28.3573 16.4474 28.4495 16.4211 28.4649 16.4079L30.3957 14.756L31.3963 16.8922L24.8526 18.5803C24.7779 18.6001 24.7219 18.6891 24.7361 18.7649C24.7361 18.7649 25.0645 20.4925 25.2765 21.2943L25.248 21.3075L23.3007 19.1163C23.0195 18.7989 22.1035 20.1883 21.9113 20.4035L19.9925 20.4683C19.8959 20.4716 19.8267 20.554 19.841 20.6496L20.2353 23.4667L18.7987 21.5084C18.7504 21.4425 18.646 21.425 18.579 21.4722L13.026 25.3877L11.932 23.1987L14.4241 22.8176C14.4439 22.8143 14.524 22.7627 14.535 22.7451L17.4983 18.0608C17.6059 17.8906 17.4675 17.7401 17.2896 17.8346L14.568 19.28L16.3769 13.3238C16.4351 13.1305 16.2605 13.0229 16.1144 13.1624L9.7387 19.2305C9.71893 19.2492 9.68708 19.3437 9.69148 19.37L10.9809 27.7952L5.17083 30.4377C4.96983 30.0775 4.77434 29.7084 4.58543 29.3262V29.3262ZM39.1636 29.3087C36.3266 35.0781 32.0136 38.3192 26.578 39.4021C24.8196 39.7514 23.1919 40.6388 21.8794 41.8415C20.5593 40.6487 18.9294 39.769 17.1721 39.4186C12.3428 38.4576 8.40096 35.7909 5.59258 31.1637L19.7004 24.7485L18.5713 26.3081L18.0035 26.2938C17.8047 26.2894 17.7465 26.4805 17.9145 26.5881L19.0601 27.3174C19.1117 27.3504 19.216 27.3383 19.26 27.2943L21.0458 25.4525L21.3786 25.894L19.696 27.7205C19.6422 27.726 18.6175 27.7611 19.0722 28.0676L20.1309 28.7815C20.1836 28.8177 20.288 28.8078 20.333 28.7628L22.1617 26.933L22.4901 27.3701L20.8327 29.1648H20.2825C19.6037 29.1648 21.1524 30.5256 21.416 30.2609L23.2655 28.3982L23.628 28.8803L22.1046 30.6629L21.4478 30.6695C21.2545 30.6717 21.1996 30.8496 21.3588 30.9594L22.3913 31.6755C22.444 31.7129 22.5483 31.7041 22.5944 31.6579L24.377 29.8754C24.4045 29.9116 24.4429 29.972 24.4912 30.016C24.4791 30.0357 24.4715 30.0566 24.4704 30.0797L24.3748 32.7574C24.3748 32.7705 24.3825 32.7936 24.3935 32.8167C24.3309 32.8079 24.2793 32.82 24.2441 32.8606L22.5659 34.7947C22.5483 34.8145 22.5252 34.9111 22.5318 34.9364L22.545 34.9924C22.511 34.9704 22.4714 34.965 22.4253 34.9803L20.0453 35.7459C20.0266 35.7513 19.9563 35.8151 19.9486 35.8337L19.9124 35.915C19.9102 35.8491 19.8915 35.7975 19.8465 35.7689L16.9063 33.8798C16.8536 33.8447 16.7218 33.8557 16.5636 33.8952L16.7196 33.8359C16.7723 33.8161 16.8272 33.7272 16.8217 33.67L16.2791 28.5398C16.2583 28.3323 16.0342 28.3092 15.9694 28.5069L13.9936 34.5937C13.9419 34.7519 14.0463 34.8507 14.2022 34.7925L16.0749 34.0808C15.8058 34.2203 15.6158 34.3982 15.7728 34.5355C16.9469 35.5537 20.2638 38.8607 19.9574 37.7788L19.9387 37.714C20.0222 37.837 20.109 37.9161 20.1858 37.9018L23.8388 37.2648C23.9992 37.2363 24.0387 37.1034 23.9212 36.9913L24.0508 36.9968C24.1123 37.0485 24.2166 37.0408 24.2705 36.9815L27.3941 33.5393C27.4764 33.4471 27.4687 33.3504 27.3974 33.3021C27.4655 33.2889 27.5281 33.2175 27.5303 33.1494L27.6258 29.134C27.6291 28.989 27.5314 28.922 27.4149 28.9759L27.5401 28.8924C27.6983 28.7881 27.5215 28.408 27.5072 28.3553L30.0377 28.2532C30.3683 28.24 30.2782 26.9714 30.2859 26.8638C30.3013 26.6749 30.1387 26.6046 30.0102 26.743L29.6412 27.1406L27.2019 27.2317L27.0305 26.6046L29.695 26.4179C30.0234 26.3948 29.8883 25.1504 29.8927 25.0241C29.9136 24.5112 29.2974 25.2196 29.2085 25.3064L26.6846 25.3361L26.5341 24.7814L29.2458 24.6167C29.5753 24.5969 29.5204 23.2317 29.5204 23.2273C29.5731 22.7067 28.9075 23.4052 28.823 23.4799L26.1925 23.5293L26.0442 22.9868L28.834 22.8341C28.8911 22.8308 28.9701 22.7627 28.9811 22.7056L29.2414 21.358C29.2799 21.1603 29.0942 21.0713 28.9636 21.2251L28.6352 21.6117C27.7455 21.6183 27.0997 21.6106 26.6044 21.6084L39.2921 15.839C40.2926 20.3552 40.9264 25.7249 39.1636 29.3087V29.3087ZM40.3234 7.87071C40.2707 7.80151 40.2169 7.73232 40.1641 7.66422H28.5495V8.5275H39.6732C39.9027 8.28148 40.1268 8.06072 40.3234 7.87071ZM25.9575 4.02662C25.9575 3.81245 26.0212 3.4533 25.4039 3.4533C24.7867 3.4533 23.5148 3.41046 23.5148 3.41046V4.45166C23.5148 4.45166 24.8734 4.47253 25.4468 4.47253C26.0201 4.47253 25.9575 4.24079 25.9575 4.02662V4.02662ZM19.4675 3.36324L18.668 4.82619H20.2034L19.4675 3.36324ZM15.2951 4.89868C14.7492 4.91076 13.0864 4.98325 13.0864 4.98325L13.0622 5.52911H15.3445C15.6839 5.52911 15.842 4.88659 15.2951 4.89868ZM15.3324 3.48954C14.9074 3.48954 13.1347 3.59937 13.1347 3.59937V4.12107C13.1347 4.12107 15.0523 4.09691 15.3324 4.08483C15.6114 4.07275 15.7575 3.48954 15.3324 3.48954ZM3.42671 7.88718C3.61781 8.0739 3.83638 8.28916 4.06043 8.5275H15.1995V7.66422H3.59914C3.54093 7.73781 3.48382 7.8125 3.42671 7.88718ZM9.07972 3.92997L8.28454 5.15239L9.809 5.08319L9.07972 3.92997ZM40.1641 7.66422H28.5495V8.5275H39.6732C39.9027 8.28148 40.1268 8.06072 40.3234 7.87071C40.2707 7.80151 40.2169 7.73232 40.1641 7.66422V7.66422ZM9.07972 3.92997L8.28454 5.15239L9.809 5.08319L9.07972 3.92997ZM15.3324 3.48954C14.9074 3.48954 13.1347 3.59937 13.1347 3.59937V4.12107C13.1347 4.12107 15.0523 4.09691 15.3324 4.08483C15.6114 4.07275 15.7575 3.48954 15.3324 3.48954ZM15.2951 4.89868C14.7492 4.91076 13.0864 4.98325 13.0864 4.98325L13.0622 5.52911H15.3445C15.6839 5.52911 15.842 4.88659 15.2951 4.89868ZM19.4675 3.36324L18.668 4.82619H20.2034L19.4675 3.36324V3.36324ZM25.9575 4.02662C25.9575 3.81245 26.0212 3.4533 25.4039 3.4533C24.7867 3.4533 23.5148 3.41046 23.5148 3.41046V4.45166C23.5148 4.45166 24.8734 4.47253 25.4468 4.47253C26.0201 4.47253 25.9575 4.24079 25.9575 4.02662V4.02662ZM40.1641 7.66422H28.5495V8.5275H39.6732C39.9027 8.28148 40.1268 8.06072 40.3234 7.87071C40.2707 7.80151 40.2169 7.73232 40.1641 7.66422ZM25.9575 4.02662C25.9575 3.81245 26.0212 3.4533 25.4039 3.4533C24.7867 3.4533 23.5148 3.41046 23.5148 3.41046V4.45166C23.5148 4.45166 24.8734 4.47253 25.4468 4.47253C26.0201 4.47253 25.9575 4.24079 25.9575 4.02662V4.02662ZM19.4675 3.36324L18.668 4.82619H20.2034L19.4675 3.36324ZM15.2951 4.89868C14.7492 4.91076 13.0864 4.98325 13.0864 4.98325L13.0622 5.52911H15.3445C15.6839 5.52911 15.842 4.88659 15.2951 4.89868ZM15.3324 3.48954C14.9074 3.48954 13.1347 3.59937 13.1347 3.59937V4.12107C13.1347 4.12107 15.0523 4.09691 15.3324 4.08483C15.6114 4.07275 15.7575 3.48954 15.3324 3.48954ZM9.07972 3.92997L8.28454 5.15239L9.809 5.08319L9.07972 3.92997ZM9.07972 3.92997L8.28454 5.15239L9.809 5.08319L9.07972 3.92997ZM15.3324 3.48954C14.9074 3.48954 13.1347 3.59937 13.1347 3.59937V4.12107C13.1347 4.12107 15.0523 4.09691 15.3324 4.08483C15.6114 4.07275 15.7575 3.48954 15.3324 3.48954ZM15.2951 4.89868C14.7492 4.91076 13.0864 4.98325 13.0864 4.98325L13.0622 5.52911H15.3445C15.6839 5.52911 15.842 4.88659 15.2951 4.89868ZM19.4675 3.36324L18.668 4.82619H20.2034L19.4675 3.36324V3.36324ZM25.9575 4.02662C25.9575 3.81245 26.0212 3.4533 25.4039 3.4533C24.7867 3.4533 23.5148 3.41046 23.5148 3.41046V4.45166C23.5148 4.45166 24.8734 4.47253 25.4468 4.47253C26.0201 4.47253 25.9575 4.24079 25.9575 4.02662V4.02662ZM25.9575 4.02662C25.9575 3.81245 26.0212 3.4533 25.4039 3.4533C24.7867 3.4533 23.5148 3.41046 23.5148 3.41046V4.45166C23.5148 4.45166 24.8734 4.47253 25.4468 4.47253C26.0201 4.47253 25.9575 4.24079 25.9575 4.02662V4.02662ZM19.4675 3.36324L18.668 4.82619H20.2034L19.4675 3.36324ZM15.2951 4.89868C14.7492 4.91076 13.0864 4.98325 13.0864 4.98325L13.0622 5.52911H15.3445C15.6839 5.52911 15.842 4.88659 15.2951 4.89868ZM15.3324 3.48954C14.9074 3.48954 13.1347 3.59937 13.1347 3.59937V4.12107C13.1347 4.12107 15.0523 4.09691 15.3324 4.08483C15.6114 4.07275 15.7575 3.48954 15.3324 3.48954ZM9.07972 3.92997L8.28454 5.15239L9.809 5.08319L9.07972 3.92997Z" fill="black"/>
</svg>
