<svg width="43" height="43" viewBox="0 0 43 43" fill="none" xmlns="http://www.w3.org/2000/svg">
<g opacity="0.5">
<path d="M41.7721 27.7168C41.1199 27.7168 40.5884 28.2507 40.5884 28.9041C40.5884 29.5574 41.1199 30.0914 41.7721 30.0914C42.4242 30.0914 42.9522 29.5598 42.9522 28.9041C42.9522 28.2483 42.4219 27.7168 41.7721 27.7168ZM41.7721 28.0154C42.257 28.0154 42.6488 28.4167 42.6488 28.9041C42.6488 29.3914 42.257 29.7892 41.7721 29.7892C41.2871 29.7892 40.8918 29.3926 40.8918 28.9041C40.8918 28.4155 41.2847 28.0154 41.7721 28.0154Z" fill="black"/>
<path d="M38.6689 17.4355C37.5473 17.4355 36.6288 17.9217 36.0149 18.8378L35.9946 18.8701H35.8405V17.7222H32.9153V30.8002H35.9934V26.413H36.1427L36.1666 26.4417C36.8163 27.3208 37.7432 27.7711 38.9174 27.7711C41.7351 27.7711 42.9976 25.2842 42.9976 22.8225C42.9976 20.3607 41.8605 17.4367 38.6665 17.4367L38.6689 17.4355ZM37.9296 19.7707C39.3963 19.7707 39.9219 21.1789 39.9219 22.4976C39.9219 23.919 39.3916 25.4347 37.9105 25.4347C36.5464 25.4347 35.8823 24.4744 35.8823 22.4976C35.8823 20.5208 36.9406 19.7707 37.9308 19.7707H37.9296Z" fill="black"/>
<path d="M5.96028 23.0133C5.96028 24.2889 5.54461 24.8623 4.61653 24.8623C3.68844 24.8623 3.17483 24.3272 3.17483 23.3943V22.2082H0V22.7254C0 26.1654 1.48469 27.7684 4.67147 27.7684C7.85825 27.7684 9.34056 26.2861 9.34056 23.2402V14H5.96028V23.0133Z" fill="black"/>
<path d="M15.6245 17.4348C12.6849 17.4348 10.3809 19.6935 10.3809 22.5733C10.3809 25.7792 12.4174 27.7691 15.6973 27.7691C18.1591 27.7691 19.9364 26.5974 20.4882 24.6337H17.6156C17.311 25.3026 16.6003 25.7206 15.7367 25.7206C14.3727 25.7206 13.5187 24.8523 13.4577 23.3975V23.321H20.6937C20.6985 23.2111 20.7021 23.1024 20.7021 22.9973C20.7021 21.3072 20.1932 19.85 19.2556 18.8598C18.3681 17.9269 17.1127 17.4336 15.6233 17.4336L15.6245 17.4348ZM15.6245 19.4833C16.6971 19.4833 17.5523 20.3803 17.612 21.5759L17.6156 21.6571H13.4458L13.4577 21.5688C13.662 20.2811 14.4921 19.4845 15.6233 19.4845L15.6245 19.4833Z" fill="black"/>
<path d="M41.2954 28.2903V29.5098H41.5821V29.0248H41.7839L41.9703 29.5098H42.2892L42.0587 28.9723C42.0921 28.9568 42.1184 28.9436 42.1315 28.9317C42.2211 28.8755 42.2725 28.7692 42.2725 28.6534C42.2725 28.5459 42.2247 28.436 42.147 28.3703C42.0694 28.3118 41.9858 28.2891 41.8281 28.2891H41.2954V28.2903ZM41.5821 28.5041H41.7481C41.9189 28.5041 41.9822 28.5483 41.9822 28.6581C41.9822 28.768 41.9141 28.8194 41.7565 28.8194H41.5833V28.5041H41.5821Z" fill="black"/>
<path d="M26.863 17.4348C23.9235 17.4348 21.6194 19.6935 21.6194 22.5733C21.6194 25.7792 23.6559 27.7691 26.9359 27.7691C29.3976 27.7691 31.1749 26.5974 31.7268 24.6337H28.8541C28.5496 25.3026 27.8389 25.7206 26.9753 25.7206C25.6112 25.7206 24.7572 24.8523 24.6963 23.3975V23.321H31.9322C31.937 23.2111 31.9406 23.1024 31.9406 22.9973C31.9406 21.3072 31.4317 19.85 30.4941 18.8598C29.6066 17.9269 28.3513 17.4336 26.8618 17.4336L26.863 17.4348ZM26.863 19.4833C27.9356 19.4833 28.7908 20.3803 28.8506 21.5759L28.8541 21.6571H24.6843L24.6963 21.5688C24.9005 20.2811 25.7307 19.4845 26.8618 19.4845L26.863 19.4833Z" fill="black"/>
</g>
</svg>
