<svg width="43" height="43" viewBox="0 0 43 43" fill="none" xmlns="http://www.w3.org/2000/svg">
<g opacity="0.5">
<path fill-rule="evenodd" clip-rule="evenodd" d="M21.5002 10.2617C9.62611 10.2617 0 15.189 0 21.2666C0 26.1874 6.31152 30.354 15.0173 31.7617L21.5002 16.0405L27.983 31.7614C36.6894 30.3537 43 26.1871 43 21.2663C43 15.189 33.3745 10.2617 21.5002 10.2617ZM31.3732 26.7899L21.5002 15.1494L11.6643 26.757C6.82067 25.3844 3.62808 22.9815 3.62808 20.0276C3.62808 15.3422 11.5689 10.949 21.4813 10.949C31.3943 10.949 39.525 15.3422 39.525 20.0276C39.525 23.0043 36.2815 25.4224 31.3732 26.7899Z" fill="black"/>
</g>
</svg>
