<svg width="46" height="46" viewBox="0 0 46 46" fill="none" xmlns="http://www.w3.org/2000/svg">
<path d="M45.7076 22.1045C45.2967 21.5423 35.5052 8.33984 22.9998 8.33984C10.4943 8.33984 0.7024 21.5423 0.291903 22.1039C-0.097301 22.6373 -0.097301 23.3606 0.291903 23.8939C0.7024 24.4561 10.4943 37.6585 22.9998 37.6585C35.5052 37.6585 45.2967 24.456 45.7076 23.8943C46.0974 23.3611 46.0974 22.6372 45.7076 22.1045ZM22.9998 34.6256C13.7882 34.6256 5.80994 25.8628 3.44821 22.9982C5.80688 20.131 13.7684 11.3728 22.9998 11.3728C32.2109 11.3728 40.1886 20.134 42.5513 23.0002C40.1927 25.8673 32.2311 34.6256 22.9998 34.6256Z" fill="#212EA0"/>
<path d="M23.0013 13.9023C17.9842 13.9023 13.9023 17.9842 13.9023 23.0013C13.9023 28.0184 17.9842 32.1002 23.0013 32.1002C28.0184 32.1002 32.1002 28.0184 32.1002 23.0013C32.1002 17.9842 28.0184 13.9023 23.0013 13.9023ZM23.0013 29.0672C19.6564 29.0672 16.9354 26.3461 16.9354 23.0013C16.9354 19.6565 19.6565 16.9354 23.0013 16.9354C26.3461 16.9354 29.0672 19.6565 29.0672 23.0013C29.0672 26.3461 26.3462 29.0672 23.0013 29.0672Z" fill="#212EA0"/>
<line x1="6.9213" y1="4.81296" x2="37.588" y2="43.1463" stroke="#212EA0" stroke-width="3"/>
</svg>
