<svg width="15" height="18" viewBox="0 0 15 18" fill="none" xmlns="http://www.w3.org/2000/svg">
<path d="M7.38658 8.67058C8.57639 8.67058 9.60653 8.24336 10.4485 7.40044C11.2901 6.55766 11.717 5.52647 11.717 4.33515C11.717 3.14425 11.2903 2.11292 10.4483 1.26987C9.60639 0.427226 8.57625 0 7.38658 0C6.19664 0 5.16664 0.427226 4.32483 1.27C3.48302 2.11278 3.05615 3.14411 3.05615 4.33515C3.05615 5.52647 3.48302 6.5578 4.32483 7.40058C5.16691 8.24322 6.19705 8.67058 7.38658 8.67058ZM5.06993 2.01583C5.71586 1.36915 6.47359 1.05481 7.38658 1.05481C8.29944 1.05481 9.0573 1.36915 9.70337 2.01583C10.3493 2.66264 10.6634 3.42138 10.6634 4.33515C10.6634 5.24921 10.3493 6.0078 9.70337 6.65461C9.0573 7.30143 8.29944 7.61577 7.38658 7.61577C6.47386 7.61577 5.71614 7.30129 5.06993 6.65461C4.42387 6.00794 4.10975 5.24921 4.10975 4.33515C4.10975 3.42138 4.42387 2.66264 5.06993 2.01583Z" fill="white"/>
<path d="M14.9636 13.8407C14.9394 13.4899 14.8903 13.1074 14.818 12.7033C14.745 12.2963 14.651 11.9115 14.5386 11.5598C14.4222 11.1963 14.2644 10.8373 14.0689 10.4933C13.8663 10.1363 13.6282 9.82537 13.361 9.56952C13.0816 9.30187 12.7395 9.08668 12.3439 8.92972C11.9496 8.77357 11.5127 8.69447 11.0454 8.69447C10.8619 8.69447 10.6844 8.76987 10.3416 8.9933C10.1306 9.13104 9.88386 9.29034 9.60843 9.46653C9.37291 9.61676 9.05385 9.75753 8.65977 9.88497C8.27528 10.0095 7.8849 10.0727 7.49945 10.0727C7.11428 10.0727 6.7239 10.0095 6.33914 9.88497C5.94546 9.75766 5.62627 9.6169 5.39116 9.46667C5.11833 9.29212 4.87143 9.13282 4.65731 8.99316C4.31479 8.76973 4.1373 8.69434 3.95376 8.69434C3.48629 8.69434 3.04955 8.77357 2.65546 8.92985C2.26014 9.08654 1.9179 9.30174 1.63821 9.56966C1.37101 9.82564 1.13288 10.1364 0.930419 10.4933C0.735227 10.8373 0.577208 11.1962 0.460888 11.5599C0.348547 11.9116 0.254586 12.2963 0.181612 12.7033C0.109187 13.1068 0.0602173 13.4895 0.0359383 13.8411C0.0120709 14.1848 0 14.5426 0 14.904C0 15.8436 0.298343 16.6043 0.886662 17.1652C1.46771 17.7188 2.23641 17.9995 3.17149 17.9995H11.8285C12.7633 17.9995 13.532 17.7188 14.1132 17.1652C14.7017 16.6047 15 15.8437 15 14.9039C14.9999 14.5412 14.9877 14.1835 14.9636 13.8407ZM13.3868 16.401C13.0028 16.7669 12.4931 16.9447 11.8284 16.9447H3.17149C2.50663 16.9447 1.99691 16.7669 1.61311 16.4012C1.23658 16.0423 1.0536 15.5525 1.0536 14.904C1.0536 14.5667 1.06471 14.2337 1.08693 13.914C1.1086 13.6004 1.15291 13.2558 1.21861 12.8897C1.28349 12.5281 1.36607 12.1888 1.46428 11.8816C1.55852 11.587 1.68704 11.2953 1.84643 11.0143C1.99856 10.7466 2.17358 10.5168 2.36672 10.3317C2.54737 10.1585 2.77507 10.0168 3.04337 9.91051C3.29151 9.81218 3.57038 9.75835 3.87311 9.75025C3.91001 9.76988 3.97571 9.80738 4.08216 9.87686C4.29875 10.0182 4.54839 10.1794 4.82438 10.3559C5.13548 10.5544 5.53629 10.7338 6.01514 10.8886C6.5047 11.047 7.004 11.1275 7.49959 11.1275C7.99518 11.1275 8.49461 11.047 8.9839 10.8887C9.46317 10.7336 9.86384 10.5544 10.1753 10.3556C10.4578 10.1749 10.7004 10.0183 10.917 9.87686C11.0235 9.80751 11.0892 9.76988 11.1261 9.75025C11.4289 9.75835 11.7078 9.81218 11.9561 9.91051C12.2242 10.0168 12.4519 10.1587 12.6326 10.3317C12.8257 10.5167 13.0008 10.7464 13.1529 11.0145C13.3124 11.2953 13.4411 11.5871 13.5352 11.8814C13.6335 12.189 13.7162 12.5282 13.781 12.8896C13.8465 13.2564 13.891 13.601 13.9127 13.9142V13.9144C13.935 14.2329 13.9463 14.5658 13.9464 14.904C13.9463 15.5526 13.7633 16.0423 13.3868 16.401Z" fill="white"/>
</svg>
