<svg width="20" height="22" viewBox="0 0 20 22" fill="none" xmlns="http://www.w3.org/2000/svg">
<path d="M18.9172 12.2721L18.9172 12.2721C19.0968 12.7143 18.8839 13.2183 18.4418 13.398L16.735 14.0922L18.3133 15.0405C18.7267 15.2777 18.8701 15.8048 18.6338 16.2188L18.6338 16.2189C18.397 16.6334 17.8691 16.7774 17.4546 16.5408L17.4543 16.5406C17.4437 16.5345 17.4334 16.5283 17.4233 16.522C17.4228 16.5217 17.4224 16.5214 17.422 16.5212L15.8448 15.5736L16.0333 17.4073L16.0336 17.4097C16.0747 17.8853 15.7224 18.3041 15.2469 18.3452C14.7821 18.3854 14.3693 18.0494 14.3142 17.5861L14.314 17.5838L13.993 14.4609L10.7745 12.5274V16.2821L13.286 18.1657L13.196 18.2857L13.286 18.1657C13.6678 18.4521 13.7452 18.9938 13.4588 19.3757C13.1724 19.7576 12.6306 19.8349 12.2488 19.5485L10.7745 18.4428V20.2857C10.7745 20.763 10.3875 21.15 9.91018 21.15C9.43286 21.15 9.04589 20.763 9.04589 20.2857V18.4428L7.57157 19.5485C7.18971 19.8349 6.64797 19.7576 6.36155 19.3757C6.07514 18.9938 6.15252 18.4521 6.53438 18.1657L6.62438 18.2857L6.53438 18.1657L9.04582 16.2821V12.5275L5.82762 14.4614L5.50693 17.5819C5.50689 17.5823 5.50685 17.5827 5.50682 17.5831C5.46509 18.0581 5.04658 18.4096 4.57142 18.3685C4.09585 18.3274 3.74364 17.9086 3.78474 17.433L3.78479 17.4325C3.78549 17.4247 3.78635 17.4158 3.78748 17.4064L3.97583 15.5741L2.39757 16.5224C1.99421 16.7761 1.46139 16.6554 1.20676 16.2524C0.951812 15.8489 1.07224 15.315 1.47578 15.0601C1.48632 15.0534 1.49685 15.0471 1.50719 15.0411L3.08569 14.0927L1.37884 13.3985L1.37665 13.3976L1.37666 13.3976C0.937371 13.2108 0.73262 12.7034 0.919376 12.264M18.9172 12.2721L17.7911 11.7973L14.8831 12.9798L11.5882 11.0001L14.8828 9.02013L17.7909 10.2027L17.7909 10.2027L17.7931 10.2036C18.2281 10.3724 18.7186 10.1654 18.9012 9.73595C19.0879 9.29665 18.8832 8.78916 18.4439 8.6024L18.4439 8.60239L18.4417 8.6015L16.7349 7.90734L18.3133 6.95896C18.3241 6.95276 18.3346 6.94641 18.3448 6.93994C18.7483 6.685 18.8689 6.15116 18.6139 5.74762C18.3593 5.3445 17.8264 5.22386 17.4231 5.47757L15.8448 6.42585L16.0333 4.59215L16.0333 4.59215L16.0336 4.58974C16.0738 4.12492 15.7378 3.71211 15.2745 3.65708C14.8005 3.60078 14.3705 3.93934 14.3142 4.41336L14.3142 4.41336L14.314 4.41572L13.993 7.53863L10.7747 9.4726V5.7179L13.2861 3.83434L13.1961 3.71434L13.2861 3.83433C13.668 3.54792 13.7453 3.00617 13.4589 2.62431C13.1725 2.24245 12.6308 2.16507 12.2489 2.45148C12.2489 2.45148 12.2489 2.45148 12.2489 2.45148L10.7746 3.55718V1.71429C10.7746 1.23698 10.3876 0.85 9.9103 0.85C9.433 0.85 9.04601 1.23697 9.04607 1.71429C9.04607 1.7143 9.04607 1.71431 9.04607 1.71432V3.55711L7.57228 2.45181C7.57226 2.4518 7.57224 2.45178 7.57222 2.45176C7.57207 2.45165 7.57191 2.45154 7.57176 2.45142L7.57189 2.45123L7.5683 2.44884C7.18646 2.16514 6.6468 2.24332 6.36126 2.62436C6.07502 3.00636 6.1526 3.548 6.53457 3.83427C6.53459 3.83429 6.5346 3.8343 6.53462 3.83431L9.04601 5.71784V9.47262L5.82756 7.53888L5.50664 4.416C5.50664 4.41599 5.50663 4.41598 5.50663 4.41597C5.45792 3.94114 5.03345 3.59574 4.55865 3.64444C4.0838 3.69314 3.73838 4.11761 3.78708 4.59243L3.78709 4.59246L3.97558 6.42616L2.39717 5.47778C2.38704 5.47144 2.37671 5.46522 2.36612 5.45914L2.36579 5.45895C1.95133 5.22229 1.42344 5.36637 1.1867 5.7809L1.1867 5.7809C0.950328 6.19486 1.09376 6.72196 1.50712 6.95912L3.08542 7.90776L1.37852 8.60193L1.37852 8.60192L1.37635 8.60284C0.946915 8.78538 0.739915 9.27586 0.908679 9.71086L0.908683 9.71087C1.08135 10.1559 1.58206 10.3767 2.0271 10.2041L2.02711 10.2041L2.02936 10.2032L4.93742 9.02019L8.2323 10.9999L4.93772 12.9799L2.02965 11.7973L2.02966 11.7973L2.0274 11.7964C1.5924 11.6276 1.10192 11.8346 0.919376 12.264M18.9172 12.2721L18.9168 12.2712M18.9172 12.2721L18.9168 12.2712M0.919376 12.264L1.05742 12.3227M0.919376 12.264C0.919376 12.2641 0.919375 12.2641 0.919374 12.2641L1.05742 12.3227M1.05742 12.3227C0.903078 12.6858 1.07229 13.1052 1.43534 13.2596L1.05742 12.3227ZM3.93419 17.446C3.90022 17.839 4.1913 18.1851 4.58434 18.2191C4.97738 18.2531 5.32352 17.962 5.35748 17.5689L3.93419 17.446ZM3.93419 17.446C3.93487 17.4384 3.93562 17.4307 3.93655 17.4231L3.93419 17.446ZM18.9168 12.2712L18.9165 12.2706L18.9168 12.2712ZM18.916 12.2693L18.9165 12.2705L18.916 12.2693ZM18.916 12.2693C18.916 12.2693 18.916 12.2693 18.916 12.2693M18.916 12.2693L18.916 12.2693M18.916 12.2693C18.7355 11.8287 18.2322 11.6174 17.7912 11.7972L18.916 12.2693ZM7.57229 2.45182C7.57427 2.45332 7.57539 2.45425 7.57516 2.45406L7.5751 2.45401L7.57495 2.45389L7.5744 2.45346L7.57229 2.45182Z" fill="#212EA0" stroke="#212EA0" stroke-width="0.3"/>
</svg>
