<svg width="32" height="20" viewBox="0 0 32 20" fill="none" xmlns="http://www.w3.org/2000/svg">
<path d="M1.00162 9.12616L3.3588 7.55205L6.0572 1.62368C6.41598 0.899023 7.15476 0.441743 7.96222 0.444347H29.8703C31.0465 0.444347 32 1.39949 32 2.57796V16.9789C32 17.2734 31.7617 17.5122 31.4675 17.5122H28.6142C28.0327 19.1742 26.2165 20.049 24.5576 19.4665C23.6446 19.1459 22.9266 18.4267 22.6066 17.5122H10.5111C9.92964 19.1742 8.11345 20.049 6.45432 19.4665C5.54135 19.1459 4.82358 18.4267 4.50359 17.5122H0.585866C0.291652 17.5122 0.053335 17.2734 0.053335 16.9789V10.5785C0.0763001 9.95564 0.441142 9.39679 1.00162 9.12616ZM4.64203 7.3782H8.57253C8.86653 7.3782 9.10485 7.13947 9.10485 6.84475V4.1779C9.10485 3.88339 8.86653 3.64466 8.57253 3.64466H6.50545L4.64203 7.3782ZM23.5239 16.8721C23.7594 18.0265 24.8847 18.7711 26.0371 18.5352C27.1895 18.2993 27.9328 17.1723 27.6973 16.0179C27.4618 14.8633 26.3367 14.1187 25.1843 14.3548C24.1927 14.5577 23.4806 15.4317 23.4808 16.4455C23.481 16.5889 23.4953 16.7317 23.5239 16.8721ZM5.42089 16.8721C5.65639 18.0265 6.78147 18.7711 7.93406 18.5352C9.08643 18.2993 9.82976 17.1723 9.59426 16.0179C9.35876 14.8633 8.23369 14.1187 7.0811 14.3548C6.08948 14.5577 5.37756 15.4317 5.37778 16.4455C5.37778 16.5889 5.39229 16.7317 5.42089 16.8721ZM1.11818 14.3121H3.24787V15.3788H1.11818V16.4455H4.31293C4.31293 14.6782 5.74327 13.2454 7.50747 13.2454C9.27189 13.2454 10.7022 14.6782 10.7022 16.4455H22.416C22.416 14.6782 23.8463 13.2454 25.6107 13.2454C27.3749 13.2454 28.8052 14.6782 28.8052 16.4455H30.9352V15.3788H29.3378V14.3121H30.9352V10.5785H11.2345V9.5116H30.9352V2.57796C30.9352 1.98872 30.4583 1.51104 29.8701 1.51104H7.96222C7.56488 1.50822 7.20004 1.72959 7.01827 2.08335L6.7936 2.57796H8.57232C9.45452 2.57796 10.1697 3.29415 10.1697 4.1779V6.84475C10.1697 7.72849 9.45452 8.4449 8.57232 8.4449H3.94008L1.59092 10.0136C1.57705 10.0227 1.56752 10.0355 1.55473 10.0451H2.71556C3.00955 10.0451 3.24787 10.2838 3.24787 10.5785V12.7119C3.24787 13.0064 3.00955 13.2451 2.71556 13.2451H1.11818V14.3121ZM1.11818 12.1785H2.18303V11.1118H1.11818V12.1785Z" fill="#1774FF"/>
<path d="M10.1697 9.51172H7.50746V10.5786H10.1697V9.51172Z" fill="#1774FF"/>
<path d="M21.8838 14.3125H11.2349V15.3792H21.8838V14.3125Z" fill="#1774FF"/>
</svg>
