<svg width="32" height="32" viewBox="0 0 32 32" fill="none" xmlns="http://www.w3.org/2000/svg">
<path d="M1.00162 15.1262L3.3588 13.552L6.0572 7.62368C6.41598 6.89902 7.15476 6.44174 7.96222 6.44435H29.8703C31.0465 6.44435 32 7.39949 32 8.57796V22.9789C32 23.2734 31.7617 23.5122 31.4675 23.5122H28.6142C28.0327 25.1742 26.2165 26.049 24.5576 25.4665C23.6446 25.146 22.9266 24.4267 22.6066 23.5122H10.5111C9.92964 25.1742 8.11345 26.049 6.45432 25.4665C5.54135 25.146 4.82358 24.4267 4.50359 23.5122H0.585867C0.291653 23.5122 0.0533352 23.2734 0.0533352 22.9789V16.5785C0.0762997 15.9556 0.441143 15.3968 1.00162 15.1262ZM4.64203 13.3782H8.57253C8.86653 13.3782 9.10485 13.1395 9.10485 12.8447V10.1779C9.10485 9.88339 8.86653 9.64466 8.57253 9.64466H6.50545L4.64203 13.3782ZM23.5239 22.8721C23.7594 24.0265 24.8847 24.7711 26.0371 24.5352C27.1895 24.2993 27.9328 23.1723 27.6973 22.0179C27.4618 20.8633 26.3367 20.1187 25.1843 20.3548C24.1927 20.5577 23.4806 21.4317 23.4808 22.4455C23.481 22.5889 23.4953 22.7317 23.5239 22.8721ZM5.42089 22.8721C5.65639 24.0265 6.78147 24.7711 7.93406 24.5352C9.08643 24.2993 9.82977 23.1723 9.59426 22.0179C9.35876 20.8633 8.23369 20.1187 7.0811 20.3548C6.08948 20.5577 5.37756 21.4317 5.37778 22.4455C5.37778 22.5889 5.39229 22.7317 5.42089 22.8721ZM1.11818 20.3121H3.24787V21.3788H1.11818V22.4455H4.31293C4.31293 20.6782 5.74327 19.2454 7.50747 19.2454C9.27188 19.2454 10.7022 20.6782 10.7022 22.4455H22.416C22.416 20.6782 23.8463 19.2454 25.6107 19.2454C27.3749 19.2454 28.8052 20.6782 28.8052 22.4455H30.9352V21.3788H29.3378V20.3121H30.9352V16.5785H11.2345V15.5116H30.9352V8.57796C30.9352 7.98872 30.4583 7.51104 29.8701 7.51104H7.96222C7.56488 7.50822 7.20004 7.72959 7.01827 8.08335L6.7936 8.57796H8.57232C9.45452 8.57796 10.1697 9.29415 10.1697 10.1779V12.8447C10.1697 13.7285 9.45452 14.4449 8.57232 14.4449H3.94007L1.59092 16.0136C1.57705 16.0227 1.56752 16.0355 1.55474 16.0451H2.71556C3.00955 16.0451 3.24787 16.2838 3.24787 16.5785V18.7119C3.24787 19.0064 3.00955 19.2451 2.71556 19.2451H1.11818V20.3121ZM1.11818 18.1785H2.18303V17.1118H1.11818V18.1785Z" fill="#141414"/>
<path d="M10.1697 15.5117H7.50746V16.5786H10.1697V15.5117Z" fill="#141414"/>
<path d="M21.8838 20.3125H11.2349V21.3792H21.8838V20.3125Z" fill="#141414"/>
</svg>
