<svg width="20" height="22" viewBox="0 0 20 22" fill="none" xmlns="http://www.w3.org/2000/svg">
<mask id="path-1-outside-1_1041_1246" maskUnits="userSpaceOnUse" x="0" y="0" width="20" height="22" fill="black">
<rect fill="white" width="20" height="22"/>
<path d="M18.7782 12.3286C18.9266 12.694 18.7507 13.1106 18.3853 13.2591L16.4006 14.0662L18.2375 15.17C18.58 15.3656 18.6991 15.8019 18.5035 16.1445C18.3079 16.4871 17.8716 16.6061 17.529 16.4105C17.5198 16.4052 17.5107 16.3998 17.5017 16.3941L15.665 15.2905L15.8841 17.4226C15.9181 17.8157 15.627 18.1618 15.234 18.1958C14.8498 18.229 14.5087 17.9513 14.4632 17.5684L14.1346 14.3709L10.6245 12.2623V16.3571L13.196 18.2857C13.5116 18.5224 13.5755 18.9701 13.3388 19.2857C13.1021 19.6013 12.6544 19.6652 12.3388 19.4285L10.6245 18.1428V20.2857C10.6245 20.6802 10.3046 21 9.91018 21C9.51571 21 9.19589 20.6802 9.19589 20.2857V18.1428L7.48157 19.4285C7.16598 19.6652 6.71826 19.6013 6.48155 19.2857C6.24484 18.9701 6.30879 18.5224 6.62438 18.2857L9.19582 16.3571V12.2623L5.68607 14.3714L5.35748 17.5689C5.32352 17.962 4.97738 18.2531 4.58434 18.2191C4.1913 18.1851 3.90022 17.839 3.93419 17.446C3.93487 17.4384 3.93562 17.4307 3.93655 17.4231L4.15571 15.291L2.31897 16.3946C1.98547 16.6053 1.54427 16.5058 1.33357 16.1723C1.12286 15.8388 1.2224 15.3976 1.55591 15.1869C1.56486 15.1812 1.57401 15.1757 1.58322 15.1704L3.42008 14.0667L1.43534 13.2596C1.07229 13.1052 0.903078 12.6858 1.05742 12.3227C1.20828 11.9678 1.61364 11.7968 1.97315 11.9362L4.95069 13.1471L8.52352 10.9999L4.95038 8.85299L1.97284 10.0642C1.60505 10.2069 1.19123 10.0244 1.04852 9.65661C0.90905 9.2971 1.08013 8.89174 1.43503 8.74088L3.41977 7.93371L1.58303 6.82974C1.24044 6.63409 1.12137 6.19781 1.31696 5.85528C1.51261 5.5127 1.94889 5.39363 2.29141 5.58921C2.30062 5.5945 2.3097 5.59998 2.31872 5.60564L4.15547 6.70924L3.9363 4.57712C3.89605 4.1847 4.18153 3.8339 4.57395 3.79365C4.96637 3.7534 5.31717 4.03888 5.35742 4.4313L5.68601 7.62882L9.19601 9.73773V5.64284L6.62457 3.71427C6.30886 3.47769 6.24472 3.03003 6.4813 2.71431C6.71788 2.3986 7.16555 2.33446 7.48126 2.57105C7.48145 2.57117 7.48157 2.57129 7.48176 2.57142L9.19607 3.85711V1.71429C9.19601 1.31982 9.51583 1 9.9103 1C10.3048 1 10.6246 1.31982 10.6246 1.71429V3.85717L12.3389 2.57148C12.6545 2.33477 13.1022 2.39872 13.3389 2.71431C13.5756 3.0299 13.5117 3.47763 13.1961 3.71434L10.6247 5.6429V9.73773L14.1346 7.62857L14.4632 4.43105C14.5097 4.03932 14.8651 3.7595 15.2568 3.80603C15.6397 3.85151 15.9173 4.19267 15.8841 4.57681L15.665 6.70893L17.5017 5.60533C17.8352 5.39462 18.2764 5.49416 18.4871 5.82773C18.6978 6.16123 18.5982 6.60242 18.2647 6.81313C18.2557 6.81879 18.2467 6.82426 18.2374 6.82955L16.4005 7.93328L18.3852 8.74045C18.7483 8.89479 18.9175 9.31421 18.7631 9.67726C18.6123 10.0322 18.2069 10.2032 17.8474 10.0638L14.8698 8.85292L11.297 11.0001L14.8702 13.147L17.8477 11.9362C18.2125 11.7874 18.6289 11.9625 18.7776 12.3273C18.7778 12.3276 18.778 12.3281 18.7782 12.3286V12.3286Z"/>
</mask>
<path d="M18.7782 12.3286C18.9266 12.694 18.7507 13.1106 18.3853 13.2591L16.4006 14.0662L18.2375 15.17C18.58 15.3656 18.6991 15.8019 18.5035 16.1445C18.3079 16.4871 17.8716 16.6061 17.529 16.4105C17.5198 16.4052 17.5107 16.3998 17.5017 16.3941L15.665 15.2905L15.8841 17.4226C15.9181 17.8157 15.627 18.1618 15.234 18.1958C14.8498 18.229 14.5087 17.9513 14.4632 17.5684L14.1346 14.3709L10.6245 12.2623V16.3571L13.196 18.2857C13.5116 18.5224 13.5755 18.9701 13.3388 19.2857C13.1021 19.6013 12.6544 19.6652 12.3388 19.4285L10.6245 18.1428V20.2857C10.6245 20.6802 10.3046 21 9.91018 21C9.51571 21 9.19589 20.6802 9.19589 20.2857V18.1428L7.48157 19.4285C7.16598 19.6652 6.71826 19.6013 6.48155 19.2857C6.24484 18.9701 6.30879 18.5224 6.62438 18.2857L9.19582 16.3571V12.2623L5.68607 14.3714L5.35748 17.5689C5.32352 17.962 4.97738 18.2531 4.58434 18.2191C4.1913 18.1851 3.90022 17.839 3.93419 17.446C3.93487 17.4384 3.93562 17.4307 3.93655 17.4231L4.15571 15.291L2.31897 16.3946C1.98547 16.6053 1.54427 16.5058 1.33357 16.1723C1.12286 15.8388 1.2224 15.3976 1.55591 15.1869C1.56486 15.1812 1.57401 15.1757 1.58322 15.1704L3.42008 14.0667L1.43534 13.2596C1.07229 13.1052 0.903078 12.6858 1.05742 12.3227C1.20828 11.9678 1.61364 11.7968 1.97315 11.9362L4.95069 13.1471L8.52352 10.9999L4.95038 8.85299L1.97284 10.0642C1.60505 10.2069 1.19123 10.0244 1.04852 9.65661C0.90905 9.2971 1.08013 8.89174 1.43503 8.74088L3.41977 7.93371L1.58303 6.82974C1.24044 6.63409 1.12137 6.19781 1.31696 5.85528C1.51261 5.5127 1.94889 5.39363 2.29141 5.58921C2.30062 5.5945 2.3097 5.59998 2.31872 5.60564L4.15547 6.70924L3.9363 4.57712C3.89605 4.1847 4.18153 3.8339 4.57395 3.79365C4.96637 3.7534 5.31717 4.03888 5.35742 4.4313L5.68601 7.62882L9.19601 9.73773V5.64284L6.62457 3.71427C6.30886 3.47769 6.24472 3.03003 6.4813 2.71431C6.71788 2.3986 7.16555 2.33446 7.48126 2.57105C7.48145 2.57117 7.48157 2.57129 7.48176 2.57142L9.19607 3.85711V1.71429C9.19601 1.31982 9.51583 1 9.9103 1C10.3048 1 10.6246 1.31982 10.6246 1.71429V3.85717L12.3389 2.57148C12.6545 2.33477 13.1022 2.39872 13.3389 2.71431C13.5756 3.0299 13.5117 3.47763 13.1961 3.71434L10.6247 5.6429V9.73773L14.1346 7.62857L14.4632 4.43105C14.5097 4.03932 14.8651 3.7595 15.2568 3.80603C15.6397 3.85151 15.9173 4.19267 15.8841 4.57681L15.665 6.70893L17.5017 5.60533C17.8352 5.39462 18.2764 5.49416 18.4871 5.82773C18.6978 6.16123 18.5982 6.60242 18.2647 6.81313C18.2557 6.81879 18.2467 6.82426 18.2374 6.82955L16.4005 7.93328L18.3852 8.74045C18.7483 8.89479 18.9175 9.31421 18.7631 9.67726C18.6123 10.0322 18.2069 10.2032 17.8474 10.0638L14.8698 8.85292L11.297 11.0001L14.8702 13.147L17.8477 11.9362C18.2125 11.7874 18.6289 11.9625 18.7776 12.3273C18.7778 12.3276 18.778 12.3281 18.7782 12.3286V12.3286Z" fill="#212EA0"/>
<path d="M18.3853 13.2591L18.2724 12.9811L18.2723 12.9812L18.3853 13.2591ZM16.4006 14.0662L16.2876 13.7883L15.7318 14.0144L16.2461 14.3234L16.4006 14.0662ZM18.2375 15.17L18.0829 15.4272L18.0887 15.4305L18.2375 15.17ZM18.5035 16.1445L18.764 16.2932L18.7641 16.2932L18.5035 16.1445ZM17.529 16.4105L17.3796 16.6707L17.3803 16.6711L17.529 16.4105ZM17.5017 16.3941L17.6612 16.14L17.6562 16.137L17.5017 16.3941ZM15.665 15.2905L15.8195 15.0334L15.3052 14.7244L15.3665 15.3212L15.665 15.2905ZM15.8841 17.4226L16.183 17.3968L16.1825 17.392L15.8841 17.4226ZM15.234 18.1958L15.2081 17.8969L15.2081 17.8969L15.234 18.1958ZM14.4632 17.5684L14.1647 17.5991L14.1653 17.6038L14.4632 17.5684ZM14.1346 14.3709L14.433 14.3403L14.4177 14.191L14.2891 14.1138L14.1346 14.3709ZM10.6245 12.2623L10.779 12.0052L10.3245 11.7321V12.2623H10.6245ZM10.6245 16.3571H10.3245V16.5071L10.4445 16.5971L10.6245 16.3571ZM13.196 18.2857L13.376 18.0457L13.376 18.0457L13.196 18.2857ZM12.3388 19.4285L12.5188 19.1885L12.5188 19.1885L12.3388 19.4285ZM10.6245 18.1428L10.8045 17.9028L10.3245 17.5428V18.1428H10.6245ZM9.19588 18.1428H9.49588V17.5428L9.01589 17.9028L9.19588 18.1428ZM7.48157 19.4285L7.30158 19.1885L7.30156 19.1885L7.48157 19.4285ZM6.62438 18.2857L6.44438 18.0457L6.44438 18.0457L6.62438 18.2857ZM9.19582 16.3571L9.37582 16.5971L9.49582 16.5071V16.3571H9.19582ZM9.19582 12.2623H9.49582V11.7321L9.0413 12.0052L9.19582 12.2623ZM5.68607 14.3714L5.53155 14.1143L5.40298 14.1915L5.38765 14.3408L5.68607 14.3714ZM5.35748 17.5689L5.05901 17.5383L5.0586 17.5431L5.35748 17.5689ZM3.93419 17.446L3.6354 17.419L3.6353 17.4201L3.93419 17.446ZM3.93655 17.4231L4.23437 17.4597L4.23498 17.4538L3.93655 17.4231ZM4.15571 15.291L4.45414 15.3217L4.51549 14.7249L4.00121 15.0339L4.15571 15.291ZM2.31897 16.3946L2.16442 16.1374L2.15874 16.141L2.31897 16.3946ZM1.55591 15.1869L1.71614 15.4405L1.71617 15.4405L1.55591 15.1869ZM1.58322 15.1704L1.73266 15.4306L1.73773 15.4276L1.58322 15.1704ZM3.42008 14.0667L3.5746 14.3239L4.08888 14.0149L3.5331 13.7888L3.42008 14.0667ZM1.43534 13.2596L1.31796 13.5357L1.32233 13.5374L1.43534 13.2596ZM1.05742 12.3227L1.33351 12.4401L1.33351 12.4401L1.05742 12.3227ZM1.97315 11.9362L2.08617 11.6583L2.08165 11.6565L1.97315 11.9362ZM4.95069 13.1471L4.83768 13.425L4.97664 13.4815L5.10523 13.4042L4.95069 13.1471ZM8.52352 10.9999L8.67806 11.257L9.10597 10.9999L8.67803 10.7428L8.52352 10.9999ZM4.95038 8.85299L5.10489 8.59583L4.9763 8.51857L4.83734 8.5751L4.95038 8.85299ZM1.97284 10.0642L2.08137 10.3439L2.08588 10.3421L1.97284 10.0642ZM1.04852 9.65661L0.768835 9.76512L0.768841 9.76513L1.04852 9.65661ZM1.43503 8.74088L1.322 8.46295L1.31768 8.46479L1.43503 8.74088ZM3.41977 7.93371L3.53279 8.21161L4.08848 7.98562L3.57432 7.67658L3.41977 7.93371ZM1.58303 6.82974L1.73762 6.57255L1.73181 6.56923L1.58303 6.82974ZM1.31696 5.85528L1.05645 5.70651L1.05644 5.70652L1.31696 5.85528ZM2.29141 5.58921L2.44082 5.32906L2.44017 5.32869L2.29141 5.58921ZM2.31872 5.60564L2.15922 5.85979L2.16421 5.86279L2.31872 5.60564ZM4.15547 6.70924L4.00096 6.96639L4.51524 7.2754L4.45389 6.67856L4.15547 6.70924ZM3.9363 4.57712L3.63787 4.60773L3.63787 4.6078L3.9363 4.57712ZM5.35742 4.4313L5.05899 4.46191L5.05899 4.46197L5.35742 4.4313ZM5.68601 7.62882L5.38758 7.65949L5.40292 7.80872L5.53151 7.88598L5.68601 7.62882ZM9.19601 9.73773L9.0415 9.99489L9.49601 10.268V9.73773H9.19601ZM9.19601 5.64284H9.49601V5.49284L9.37601 5.40284L9.19601 5.64284ZM6.62457 3.71427L6.80457 3.47427L6.80447 3.4742L6.62457 3.71427ZM7.48126 2.57105L7.30136 2.81112L7.30797 2.81608L7.31485 2.82066L7.48126 2.57105ZM7.48176 2.57142L7.66175 2.33142L7.65509 2.32642L7.64817 2.3218L7.48176 2.57142ZM9.19607 3.85711L9.01608 4.09711L9.49607 4.45709V3.85711H9.19607ZM9.19607 1.71429H9.49607V1.71425L9.19607 1.71429ZM10.6246 3.85717H10.3246V4.45716L10.8046 4.09717L10.6246 3.85717ZM12.3389 2.57148L12.5189 2.81148L12.5189 2.81147L12.3389 2.57148ZM13.1961 3.71434L13.3761 3.95434L13.3761 3.95433L13.1961 3.71434ZM10.6247 5.6429L10.4447 5.4029L10.3247 5.4929V5.6429H10.6247ZM10.6247 9.73773H10.3247V10.268L10.7792 9.99488L10.6247 9.73773ZM14.1346 7.62857L14.2891 7.88572L14.4177 7.80846L14.433 7.65924L14.1346 7.62857ZM14.4632 4.43105L14.1652 4.39566L14.1648 4.40039L14.4632 4.43105ZM15.2568 3.80603L15.2214 4.10394L15.2214 4.10394L15.2568 3.80603ZM15.8841 4.57681L16.1826 4.60749L16.183 4.60266L15.8841 4.57681ZM15.665 6.70893L15.3665 6.67825L15.3052 7.27509L15.8195 6.96608L15.665 6.70893ZM17.5017 5.60533L17.6562 5.86254L17.6619 5.85895L17.5017 5.60533ZM18.4871 5.82773L18.2335 5.98794L18.2335 5.98796L18.4871 5.82773ZM18.2647 6.81313L18.1045 6.5595L18.1044 6.55952L18.2647 6.81313ZM18.2374 6.82955L18.0887 6.5689L18.0829 6.5724L18.2374 6.82955ZM16.4005 7.93328L16.2459 7.67613L15.7317 7.98514L16.2874 8.21117L16.4005 7.93328ZM18.3852 8.74045L18.5026 8.46433L18.4982 8.46255L18.3852 8.74045ZM18.7631 9.67726L18.487 9.55989L18.487 9.55991L18.7631 9.67726ZM17.8474 10.0638L17.7344 10.3417L17.7389 10.3435L17.8474 10.0638ZM14.8698 8.85292L14.9829 8.57502L14.8439 8.51851L14.7153 8.59579L14.8698 8.85292ZM11.297 11.0001L11.1425 10.743L10.7146 11.0001L11.1425 11.2572L11.297 11.0001ZM14.8702 13.147L14.7157 13.4042L14.8442 13.4814L14.9832 13.4249L14.8702 13.147ZM17.8477 11.9362L17.9607 12.2141L17.961 12.2139L17.8477 11.9362ZM18.7776 12.3273L18.4998 12.4405L18.5042 12.4512L18.5093 12.4614L18.7776 12.3273ZM18.5002 12.4415C18.5863 12.6534 18.4843 12.895 18.2724 12.9811L18.4983 13.537C19.0172 13.3261 19.2669 12.7346 19.0561 12.2157L18.5002 12.4415ZM18.2723 12.9812L16.2876 13.7883L16.5136 14.3441L18.4983 13.537L18.2723 12.9812ZM16.2461 14.3234L18.0829 15.4271L18.392 14.9128L16.5551 13.8091L16.2461 14.3234ZM18.0887 15.4305C18.2874 15.5439 18.3565 15.797 18.243 15.9957L18.7641 16.2932C19.0418 15.8068 18.8727 15.1873 18.3862 14.9094L18.0887 15.4305ZM18.243 15.9957C18.1295 16.1944 17.8765 16.2635 17.6777 16.15L17.3803 16.6711C17.8667 16.9488 18.4862 16.7797 18.764 16.2932L18.243 15.9957ZM17.6784 16.1504C17.6728 16.1472 17.6671 16.1437 17.6612 16.14L17.3422 16.6482C17.3543 16.6558 17.3667 16.6633 17.3796 16.6707L17.6784 16.1504ZM17.6562 16.137L15.8195 15.0334L15.5104 15.5477L17.3472 16.6513L17.6562 16.137ZM15.3665 15.3212L15.5857 17.4533L16.1825 17.392L15.9634 15.2598L15.3665 15.3212ZM15.5852 17.4485C15.6049 17.6764 15.4361 17.8772 15.2081 17.8969L15.2598 18.4947C15.8179 18.4464 16.2312 17.9549 16.183 17.3968L15.5852 17.4485ZM15.2081 17.8969C14.9853 17.9162 14.7875 17.7551 14.7611 17.5331L14.1653 17.6038C14.2299 18.1475 14.7143 18.5418 15.2598 18.4947L15.2081 17.8969ZM14.7616 17.5378L14.433 14.3403L13.8362 14.4016L14.1648 17.5991L14.7616 17.5378ZM14.2891 14.1138L10.779 12.0052L10.47 12.5195L13.9801 14.6281L14.2891 14.1138ZM10.3245 12.2623V16.3571H10.9245V12.2623H10.3245ZM10.4445 16.5971L13.016 18.5257L13.376 18.0457L10.8045 16.1171L10.4445 16.5971ZM13.016 18.5257C13.199 18.663 13.2361 18.9226 13.0988 19.1057L13.5788 19.4657C13.9149 19.0176 13.8241 18.3818 13.376 18.0457L13.016 18.5257ZM13.0988 19.1057C12.9615 19.2887 12.7018 19.3258 12.5188 19.1885L12.1588 19.6685C12.6069 20.0046 13.2427 19.9138 13.5788 19.4657L13.0988 19.1057ZM12.5188 19.1885L10.8045 17.9028L10.4445 18.3828L12.1588 19.6685L12.5188 19.1885ZM10.3245 18.1428V20.2857H10.9245V18.1428H10.3245ZM10.3245 20.2857C10.3245 20.5145 10.139 20.7 9.91018 20.7V21.3C10.4703 21.3 10.9245 20.8459 10.9245 20.2857H10.3245ZM9.91018 20.7C9.68139 20.7 9.49588 20.5145 9.49588 20.2857H8.89588C8.89588 20.8459 9.35002 21.3 9.91018 21.3V20.7ZM9.49588 20.2857V18.1428H8.89588V20.2857H9.49588ZM9.01589 17.9028L7.30158 19.1885L7.66157 19.6685L9.37588 18.3828L9.01589 17.9028ZM7.30156 19.1885C7.11852 19.3258 6.85884 19.2887 6.72154 19.1057L6.24156 19.4657C6.57768 19.9138 7.21344 20.0046 7.66158 19.6685L7.30156 19.1885ZM6.72154 19.1057C6.58425 18.9226 6.62134 18.663 6.80439 18.5257L6.44438 18.0457C5.99624 18.3818 5.90543 19.0176 6.24156 19.4657L6.72154 19.1057ZM6.80438 18.5257L9.37582 16.5971L9.01582 16.1171L6.44438 18.0457L6.80438 18.5257ZM9.49582 16.3571V12.2623H8.89582V16.3571H9.49582ZM9.0413 12.0052L5.53155 14.1143L5.8406 14.6286L9.35035 12.5195L9.0413 12.0052ZM5.38765 14.3408L5.05905 17.5383L5.65591 17.5996L5.9845 14.4021L5.38765 14.3408ZM5.0586 17.5431C5.03889 17.7711 4.83813 17.9399 4.61017 17.9202L4.55851 18.518C5.11663 18.5662 5.60814 18.1529 5.65637 17.5948L5.0586 17.5431ZM4.61017 17.9202C4.38219 17.9005 4.21337 17.6998 4.23307 17.4718L3.6353 17.4201C3.58707 17.9782 4.00041 18.4698 4.55851 18.518L4.61017 17.9202ZM4.23297 17.4729C4.23355 17.4665 4.23396 17.4626 4.23431 17.4597L3.63879 17.3865C3.63728 17.3988 3.63619 17.4102 3.6354 17.419L4.23297 17.4729ZM4.23498 17.4538L4.45414 15.3217L3.85729 15.2603L3.63812 17.3925L4.23498 17.4538ZM4.00121 15.0339L2.16446 16.1375L2.47348 16.6518L4.31022 15.5482L4.00121 15.0339ZM2.15874 16.141C1.96529 16.2632 1.70939 16.2055 1.58719 16.012L1.07995 16.3325C1.37915 16.8061 2.00564 16.9474 2.47921 16.6482L2.15874 16.141ZM1.58719 16.012C1.46498 15.8186 1.52272 15.5627 1.71614 15.4405L1.39567 14.9332C0.92208 15.2325 0.780754 15.8589 1.07995 16.3325L1.58719 16.012ZM1.71617 15.4405C1.72105 15.4374 1.72653 15.4341 1.73263 15.4306L1.43381 14.9103C1.42149 14.9174 1.40868 14.925 1.39564 14.9333L1.71617 15.4405ZM1.73773 15.4276L3.5746 14.3239L3.26557 13.8096L1.4287 14.9133L1.73773 15.4276ZM3.5331 13.7888L1.54836 12.9817L1.32233 13.5374L3.30707 14.3446L3.5331 13.7888ZM1.55271 12.9835C1.34212 12.8939 1.24399 12.6507 1.33351 12.4401L0.781333 12.2054C0.562163 12.7209 0.802453 13.3165 1.31797 13.5356L1.55271 12.9835ZM1.33351 12.4401C1.42101 12.2343 1.65613 12.135 1.86464 12.2159L2.08165 11.6565C1.57115 11.4585 0.995549 11.7014 0.781327 12.2054L1.33351 12.4401ZM1.86014 12.2141L4.83768 13.425L5.0637 12.8692L2.08616 11.6583L1.86014 12.2141ZM5.10523 13.4042L8.67806 11.257L8.36899 10.7428L4.79616 12.8899L5.10523 13.4042ZM8.67803 10.7428L5.10489 8.59583L4.79587 9.11014L8.36901 11.2571L8.67803 10.7428ZM4.83734 8.5751L1.8598 9.78632L2.08588 10.3421L5.06342 9.13087L4.83734 8.5751ZM1.86431 9.78453C1.65104 9.86728 1.411 9.76145 1.32821 9.54809L0.768841 9.76513C0.971468 10.2873 1.55906 10.5466 2.08136 10.3439L1.86431 9.78453ZM1.32821 9.5481C1.24732 9.33959 1.34655 9.10447 1.55239 9.01698L1.31768 8.46479C0.813704 8.67901 0.570781 9.25461 0.768835 9.76512L1.32821 9.5481ZM1.54805 9.01878L3.53279 8.21161L3.30676 7.65581L1.32202 8.46299L1.54805 9.01878ZM3.57432 7.67658L1.73758 6.57261L1.42848 7.08687L3.26523 8.19084L3.57432 7.67658ZM1.73181 6.56923C1.5331 6.45575 1.46404 6.20271 1.57748 6.00404L1.05644 5.70652C0.778704 6.19291 0.947785 6.81243 1.43425 7.09025L1.73181 6.56923ZM1.57747 6.00406C1.69095 5.80535 1.94399 5.73629 2.14265 5.84973L2.44017 5.32869C1.95378 5.05096 1.33427 5.22004 1.05645 5.70651L1.57747 6.00406ZM2.142 5.84936C2.14755 5.85255 2.15327 5.85599 2.15925 5.85974L2.47819 5.35153C2.46613 5.34396 2.45369 5.33646 2.44082 5.32907L2.142 5.84936ZM2.16421 5.86279L4.00096 6.96639L4.30997 6.45209L2.47323 5.34848L2.16421 5.86279ZM4.45389 6.67856L4.23473 4.54645L3.63787 4.6078L3.85704 6.73991L4.45389 6.67856ZM4.23474 4.54651C4.21139 4.31888 4.37699 4.11543 4.60456 4.09209L4.54334 3.49522C3.98607 3.55238 3.58071 4.05052 3.63787 4.60773L4.23474 4.54651ZM4.60456 4.09209C4.83219 4.06874 5.03564 4.23435 5.05899 4.46191L5.65585 4.40069C5.5987 3.84342 5.10055 3.43807 4.54334 3.49522L4.60456 4.09209ZM5.05899 4.46197L5.38758 7.65949L5.98444 7.59815L5.65585 4.40064L5.05899 4.46197ZM5.53151 7.88598L9.0415 9.99489L9.35052 9.48058L5.84052 7.37167L5.53151 7.88598ZM9.49601 9.73773V5.64284H8.89601V9.73773H9.49601ZM9.37601 5.40284L6.80457 3.47427L6.44457 3.95427L9.01601 5.88284L9.37601 5.40284ZM6.80447 3.4742C6.62135 3.33697 6.58415 3.07734 6.72137 2.89422L6.24123 2.53441C5.90529 2.98272 5.99636 3.61841 6.44467 3.95435L6.80447 3.4742ZM6.72137 2.89422C6.8586 2.71109 7.11823 2.67389 7.30136 2.81112L7.66116 2.33097C7.21286 1.99503 6.57717 2.08611 6.24123 2.53441L6.72137 2.89422ZM7.31485 2.82066C7.30269 2.81255 7.2933 2.80485 7.29416 2.80554C7.29416 2.80554 7.29417 2.80555 7.29419 2.80556C7.29421 2.80558 7.29423 2.8056 7.29426 2.80562C7.29433 2.80567 7.29442 2.80575 7.29454 2.80585C7.29478 2.80604 7.29516 2.80634 7.29564 2.80671C7.29657 2.80745 7.29804 2.8086 7.29986 2.80999C7.30359 2.81283 7.30885 2.8167 7.31535 2.82103L7.64817 2.3218C7.66033 2.32991 7.66972 2.33761 7.66886 2.33692C7.66886 2.33692 7.66884 2.33691 7.66883 2.3369C7.66881 2.33689 7.66879 2.33687 7.66876 2.33684C7.66869 2.33679 7.66859 2.33671 7.66847 2.33662C7.66824 2.33643 7.66785 2.33612 7.66738 2.33575C7.66645 2.33501 7.66498 2.33386 7.66316 2.33248C7.65943 2.32963 7.65416 2.32576 7.64767 2.32143L7.31485 2.82066ZM7.30176 2.81142L9.01608 4.09711L9.37607 3.6171L7.66175 2.33142L7.30176 2.81142ZM9.49607 3.85711V1.71429H8.89607V3.85711H9.49607ZM9.49607 1.71425C9.49604 1.4855 9.68151 1.3 9.9103 1.3V0.7C9.35015 0.7 8.89598 1.15414 8.89607 1.71434L9.49607 1.71425ZM9.9103 1.3C10.1391 1.3 10.3246 1.48551 10.3246 1.71429H10.9246C10.9246 1.15413 10.4705 0.7 9.9103 0.7V1.3ZM10.3246 1.71429V3.85717H10.9246V1.71429H10.3246ZM10.8046 4.09717L12.5189 2.81148L12.1589 2.33148L10.4446 3.61717L10.8046 4.09717ZM12.5189 2.81147C12.702 2.67418 12.9616 2.71127 13.0989 2.89432L13.5789 2.53431C13.2428 2.08617 12.607 1.99536 12.1589 2.33149L12.5189 2.81147ZM13.0989 2.89432C13.2362 3.07736 13.1991 3.33705 13.0161 3.47434L13.3761 3.95433C13.8242 3.61821 13.915 2.98244 13.5789 2.53431L13.0989 2.89432ZM13.0161 3.47434L10.4447 5.4029L10.8047 5.8829L13.3761 3.95434L13.0161 3.47434ZM10.3247 5.6429V9.73773H10.9247V5.6429H10.3247ZM10.7792 9.99488L14.2891 7.88572L13.9801 7.37143L10.4701 9.48059L10.7792 9.99488ZM14.433 7.65924L14.7616 4.46172L14.1648 4.40039L13.8362 7.59791L14.433 7.65924ZM14.7611 4.46644C14.7881 4.23928 14.9942 4.07694 15.2214 4.10394L15.2922 3.50813C14.736 3.44206 14.2314 3.83936 14.1653 4.39567L14.7611 4.46644ZM15.2214 4.10394C15.4435 4.13031 15.6045 4.32816 15.5852 4.55096L16.183 4.60266C16.2302 4.05717 15.8359 3.5727 15.2922 3.50813L15.2214 4.10394ZM15.5857 4.54614L15.3665 6.67825L15.9634 6.7396L16.1825 4.60749L15.5857 4.54614ZM15.8195 6.96608L17.6562 5.86248L17.3472 5.34817L15.5104 6.45177L15.8195 6.96608ZM17.6619 5.85895C17.8554 5.73674 18.1113 5.79447 18.2335 5.98794L18.7407 5.66751C18.4415 5.19384 17.815 5.05251 17.3415 5.3517L17.6619 5.85895ZM18.2335 5.98796C18.3557 6.18137 18.2979 6.43728 18.1045 6.5595L18.4249 7.06675C18.8985 6.76757 19.0399 6.1411 18.7407 5.66749L18.2335 5.98796ZM18.1044 6.55952C18.0991 6.56292 18.0938 6.56605 18.0887 6.56897L18.386 7.09013C18.3995 7.08247 18.4124 7.07466 18.425 7.06673L18.1044 6.55952ZM18.0829 6.5724L16.2459 7.67613L16.555 8.19043L18.3919 7.0867L18.0829 6.5724ZM16.2874 8.21117L18.2722 9.01835L18.4982 8.46255L16.5135 7.65538L16.2874 8.21117ZM18.2678 9.01654C18.4784 9.10606 18.5765 9.34933 18.487 9.55989L19.0392 9.79463C19.2584 9.27909 19.0181 8.68352 18.5026 8.46436L18.2678 9.01654ZM18.487 9.55991C18.3995 9.76575 18.1644 9.86498 17.9559 9.78409L17.7389 10.3435C18.2494 10.5415 18.825 10.2986 19.0392 9.79462L18.487 9.55991ZM17.9604 9.78587L14.9829 8.57502L14.7568 9.13082L17.7344 10.3417L17.9604 9.78587ZM14.7153 8.59579L11.1425 10.743L11.4516 11.2572L15.0244 9.11006L14.7153 8.59579ZM11.1425 11.2572L14.7157 13.4042L15.0247 12.8899L11.4515 10.7429L11.1425 11.2572ZM14.9832 13.4249L17.9607 12.2141L17.7347 11.6583L14.7571 12.8691L14.9832 13.4249ZM17.961 12.2139C18.1724 12.1277 18.4136 12.2292 18.4998 12.4405L19.0554 12.214C18.8441 11.6958 18.2526 11.447 17.7344 11.6584L17.961 12.2139ZM18.5093 12.4614C18.5065 12.4559 18.5044 12.4513 18.5032 12.4485C18.502 12.4457 18.5011 12.4435 18.5007 12.4427C18.5006 12.4423 18.5 12.4409 18.5005 12.4422C18.5007 12.4427 18.5015 12.4445 18.5024 12.4468L19.0539 12.2104C19.0548 12.2125 19.0555 12.2141 19.0556 12.2143C19.056 12.2154 19.0553 12.2138 19.0551 12.2131C19.0546 12.2121 19.0536 12.2096 19.0523 12.2066C19.051 12.2037 19.0488 12.1989 19.0459 12.1931L18.5093 12.4614Z" fill="#212EA0" mask="url(#path-1-outside-1_1041_1246)"/>
</svg>
