<svg width="20" height="20" viewBox="0 0 20 20" fill="none" xmlns="http://www.w3.org/2000/svg">
<path d="M9.60522 5.89062V8.51895L11.4827 7.37895L9.60522 5.89062Z" fill="#212EA0"/>
<path d="M9.60522 0C5.4694 0 2.10522 3.365 2.10522 7.5V12.5C2.10522 16.635 5.4694 20 9.60522 20C13.741 20 17.1052 16.635 17.1052 12.5V7.5C17.1052 3.365 13.741 0 9.60522 0ZM13.4619 13.1192L9.29522 16.4817C9.1444 16.6034 8.9594 16.6667 8.7719 16.6667C8.65022 16.6667 8.5269 16.64 8.41272 16.585C8.12354 16.4467 7.93854 16.1542 7.93854 15.8333V12.0116L6.87604 13.075C6.71354 13.2375 6.50022 13.3183 6.28687 13.3183C6.07355 13.3183 5.86019 13.2375 5.69769 13.075C5.37187 12.7491 5.37187 12.2216 5.69769 11.8958L7.59687 9.9966L5.67937 8.0566C5.35604 7.72828 5.35937 7.20078 5.68605 6.87742C6.01522 6.5541 6.54187 6.55742 6.86437 6.8841L7.93854 7.9716V4.1666C7.93854 3.8466 8.12187 3.55578 8.40937 3.4166C8.69687 3.2766 9.04019 3.31578 9.28937 3.51328L13.456 6.81746C13.6702 6.98664 13.7877 7.24996 13.7702 7.52246C13.7535 7.79496 13.6044 8.04078 13.371 8.18246L10.4094 9.98078L13.3677 11.7558C13.601 11.8958 13.751 12.1408 13.7702 12.4125C13.7894 12.6841 13.6735 12.9475 13.4619 13.1192Z" fill="#212EA0"/>
<path d="M9.60522 14.0899L11.4869 12.5715L9.60522 11.4424V14.0899Z" fill="#212EA0"/>
</svg>
