<svg width="20" height="20" viewBox="0 0 20 20" fill="none" xmlns="http://www.w3.org/2000/svg">
<path d="M17.6401 4.46361C16.3371 4.46361 15.2801 5.45308 15.2801 6.6745C15.2801 7.4922 15.7549 8.20714 16.4601 8.58884V9.99009C16.4601 10.6008 15.932 11.0955 15.2801 11.0955H12.9209V1.10544C12.9209 0.495467 12.3921 0 11.741 0H0V18.7345C0.861083 19.5177 2.03635 20 3.33072 20C5.97352 20 8.11565 17.9932 8.11565 15.5173H11.741C12.3921 15.5173 12.9209 15.0218 12.9209 14.4119V13.3064H15.2801C17.235 13.3064 18.82 11.8215 18.82 9.99009V8.58884C19.5252 8.20714 20 7.4922 20 6.6745C20 5.45308 18.943 4.46361 17.6401 4.46361ZM10.0384 11.6695C10.0384 11.8244 9.98041 11.9565 9.86445 12.0652C9.74849 12.1738 9.60746 12.2281 9.44214 12.2281H3.47802C3.3127 12.2281 3.17167 12.1738 3.05571 12.0652C2.93975 11.9565 2.88177 11.8244 2.88177 11.6695V8.31725C2.88177 8.16237 2.93975 8.03024 3.05571 7.92161C3.17167 7.81297 3.3127 7.75865 3.47802 7.75865H3.67704V5.89643C3.67704 5.17855 3.9497 4.56491 4.49424 4.05402C5.03878 3.54388 5.6938 3.28917 6.46008 3.28917C7.22636 3.28917 7.88138 3.54388 8.4267 4.05476C8.97125 4.56491 9.24313 5.17855 9.24313 5.89643C9.24313 5.99699 9.20395 6.08434 9.1256 6.15848C9.04646 6.23188 8.95322 6.26858 8.84588 6.26858H8.44786C8.34052 6.26858 8.24728 6.23188 8.16814 6.15848C8.08979 6.08434 8.05062 5.99699 8.05062 5.89643C8.05062 5.48537 7.89548 5.13378 7.58442 4.8431C7.27415 4.55169 6.89885 4.40636 6.46008 4.40636C6.02131 4.40636 5.64601 4.55169 5.33574 4.8431C5.02546 5.13378 4.86955 5.48464 4.86955 5.89643V7.75865H9.44214C9.60746 7.75865 9.74849 7.81297 9.86445 7.92161C9.98041 8.03024 10.0384 8.16237 10.0384 8.31725V11.6695Z" fill="#212EA0"/>
</svg>
