<svg width="20" height="11" viewBox="0 0 20 11" fill="none" xmlns="http://www.w3.org/2000/svg">
<g clip-path="url(#clip0_1041_664)">
<path d="M20 8.47935L20 2.52119C20 1.129 19.0147 -4.3069e-08 17.7997 -9.6178e-08L2.19983 -7.7807e-07C0.984838 -8.31179e-07 -4.93503e-08 1.129 -1.10205e-07 2.52119L-3.70644e-07 8.47935C-4.31498e-07 9.87153 0.984838 11 2.19983 11L17.7997 11C19.0147 11 20 9.87153 20 8.47935ZM3.90185 9.75498C3.69466 9.22593 3.52732 8.69634 3.39982 8.16514C3.1931 7.30576 3.08951 6.44263 3.08951 5.56982C3.08951 4.69702 3.1931 3.8167 3.39982 2.92187C3.52685 2.37187 3.69278 1.8165 3.89809 1.25522C3.93747 1.14834 4.012 1.06401 4.10528 1.02051C4.19903 0.977001 4.30403 0.977538 4.39684 1.02319L7.69869 2.62808L10.9621 2.62808L14.264 1.02319C14.3643 0.973779 14.4786 0.977002 14.5766 1.03125C14.675 1.0855 14.7486 1.18594 14.7777 1.30625C15.455 4.0874 15.455 6.90937 14.7777 9.69375C14.7486 9.8146 14.6755 9.9145 14.5771 9.96875C14.4786 10.023 14.3643 10.0262 14.264 9.97734L10.9621 8.37192L7.69869 8.37192L4.39684 9.97734C4.20653 10.0703 3.98669 9.9709 3.90185 9.75498Z" fill="#212EA0"/>
<path d="M4.44973 9.00635C3.65098 6.72686 3.65333 4.42534 4.4577 1.99707L7.47361 3.46338C7.52049 3.48594 7.57111 3.49775 7.62173 3.49775L11.0394 3.49775C11.0905 3.49775 11.1411 3.48594 11.188 3.46338L14.1565 2.02017C14.6496 4.33027 14.6496 6.6667 14.1565 8.97949L11.188 7.53628C11.1411 7.51318 11.0905 7.50137 11.0394 7.50137L7.62173 7.50137C7.57111 7.50137 7.52049 7.51318 7.47361 7.53628L4.44973 9.00635Z" fill="#212EA0"/>
</g>
<defs>
<clipPath id="clip0_1041_664">
<rect width="11" height="20" fill="white" transform="translate(20) rotate(90)"/>
</clipPath>
</defs>
</svg>
