<svg width="20" height="20" viewBox="0 0 20 20" fill="none" xmlns="http://www.w3.org/2000/svg">
<path d="M5.49252 14.6024C5.42768 14.4477 5.33471 14.3122 5.21674 14.1989C5.09838 14.0852 4.95073 13.9946 4.77847 13.9286C4.60503 13.8626 4.40816 13.829 4.1941 13.829H3.45465V16.3657H4.1941C4.40855 16.3657 4.60542 16.3325 4.77925 16.268C4.95112 16.2039 5.09838 16.1137 5.21674 16.0004C5.3351 15.8868 5.42807 15.7528 5.49252 15.6012C5.55736 15.45 5.59018 15.2821 5.59018 15.102C5.59018 14.9219 5.55736 14.7571 5.49252 14.6024V14.6024ZM5.49252 14.6024C5.42768 14.4477 5.33471 14.3122 5.21674 14.1989C5.09838 14.0852 4.95073 13.9946 4.77847 13.9286C4.60503 13.8626 4.40816 13.829 4.1941 13.829H3.45465V16.3657H4.1941C4.40855 16.3657 4.60542 16.3325 4.77925 16.268C4.95112 16.2039 5.09838 16.1137 5.21674 16.0004C5.3351 15.8868 5.42807 15.7528 5.49252 15.6012C5.55736 15.45 5.59018 15.2821 5.59018 15.102C5.59018 14.9219 5.55736 14.7571 5.49252 14.6024V14.6024ZM5.49252 14.6024C5.42768 14.4477 5.33471 14.3122 5.21674 14.1989C5.09838 14.0852 4.95073 13.9946 4.77847 13.9286C4.60503 13.8626 4.40816 13.829 4.1941 13.829H3.45465V16.3657H4.1941C4.40855 16.3657 4.60542 16.3325 4.77925 16.268C4.95112 16.2039 5.09838 16.1137 5.21674 16.0004C5.3351 15.8868 5.42807 15.7528 5.49252 15.6012C5.55736 15.45 5.59018 15.2821 5.59018 15.102C5.59018 14.9219 5.55736 14.7571 5.49252 14.6024V14.6024ZM8.30069 14.0614L7.64836 15.4563H8.94873L8.30069 14.0614ZM12.928 13.9462C12.8104 13.8583 12.6327 13.8137 12.3995 13.8137H11.4077V14.7919H12.3682C12.5893 14.7919 12.7702 14.745 12.9061 14.6516C13.0295 14.5669 13.0897 14.4438 13.0897 14.2755C13.0897 14.1352 13.037 14.0278 12.928 13.9462V13.9462ZM13.1014 15.5118C12.9581 15.4192 12.7362 15.3723 12.4413 15.3723H11.4077V16.3805H12.5143C12.7663 16.3805 12.9647 16.3317 13.1034 16.2356C13.167 16.1914 13.2147 16.1391 13.2463 16.0774C13.2776 16.0157 13.2932 15.9446 13.2932 15.8637C13.2932 15.7082 13.2323 15.5965 13.1014 15.5118ZM13.1014 15.5118C12.9581 15.4192 12.7362 15.3723 12.4413 15.3723H11.4077V16.3805H12.5143C12.7663 16.3805 12.9647 16.3317 13.1034 16.2356C13.167 16.1914 13.2147 16.1391 13.2463 16.0774C13.2776 16.0157 13.2932 15.9446 13.2932 15.8637C13.2932 15.7082 13.2323 15.5965 13.1014 15.5118ZM12.9061 14.6516C13.0295 14.5669 13.0897 14.4438 13.0897 14.2755C13.0897 14.1352 13.037 14.0278 12.928 13.9462C12.8104 13.8583 12.6327 13.8137 12.3995 13.8137H11.4077V14.7919H12.3682C12.5893 14.7919 12.7702 14.745 12.9061 14.6516V14.6516ZM8.30069 14.0614L7.64836 15.4563H8.94873L8.30069 14.0614ZM5.49252 14.6024C5.42768 14.4477 5.33471 14.3122 5.21674 14.1989C5.09838 14.0852 4.95073 13.9946 4.77847 13.9286C4.60503 13.8626 4.40816 13.829 4.1941 13.829H3.45465V16.3657H4.1941C4.40855 16.3657 4.60542 16.3325 4.77925 16.268C4.95112 16.2039 5.09838 16.1137 5.21674 16.0004C5.3351 15.8868 5.42807 15.7528 5.49252 15.6012C5.55736 15.45 5.59018 15.2821 5.59018 15.102C5.59018 14.9219 5.55736 14.7571 5.49252 14.6024V14.6024ZM18.851 5.62515H8.80928L19.3799 1.81973C19.867 1.64434 20.1197 1.10723 19.9443 0.620129C19.7689 0.133025 19.2318 -0.119707 18.7447 0.0556818L3.27379 5.62515H1.14882C0.514448 5.62515 0 6.1396 0 6.77397V18.8512C0 19.4856 0.514448 20 1.14882 20H18.851C19.4853 20 19.9998 19.4856 19.9998 18.8512V6.77397C19.9998 6.1396 19.4853 5.62515 18.851 5.62515ZM6.09798 15.8301C6.04798 15.9446 5.98705 16.052 5.91556 16.1516C5.84447 16.2508 5.76244 16.343 5.67103 16.4262C5.48939 16.5914 5.27026 16.7235 5.01948 16.8184C4.76948 16.9129 4.49175 16.9606 4.1941 16.9606H2.81247V13.2337H4.1941C4.49136 13.2337 4.7687 13.2805 5.0187 13.3731C5.26948 13.4661 5.489 13.5973 5.67103 13.763C5.85423 13.9298 5.99798 14.1294 6.09759 14.3563C6.19759 14.5833 6.24837 14.8309 6.24837 15.0922C6.24837 15.3536 6.19759 15.6016 6.09798 15.8301V15.8301ZM9.64482 16.9606L9.21748 16.0368H7.37883L6.94641 16.9606H6.26907L8.04015 13.2087H8.57217L10.3433 16.9606H9.64482V16.9606ZM13.8288 16.3442C13.7577 16.4801 13.6557 16.5957 13.5249 16.6875C13.3979 16.7766 13.2448 16.8453 13.0694 16.8918C12.8975 16.9375 12.7053 16.9606 12.4987 16.9606H10.7655V13.2337H12.4307C12.621 13.2337 12.796 13.2559 12.9514 13.3005C13.1092 13.3458 13.2475 13.4102 13.3616 13.4926C13.4799 13.5778 13.5725 13.6841 13.6362 13.8083C13.6999 13.9325 13.7323 14.0719 13.7323 14.2231C13.7323 14.3528 13.7131 14.4692 13.6752 14.5688C13.6377 14.6669 13.587 14.7551 13.5233 14.8313C13.4631 14.9036 13.3952 14.9657 13.321 15.0161C13.3467 15.0274 13.3713 15.0395 13.396 15.0516C13.5014 15.1051 13.5936 15.1696 13.6709 15.2438C13.751 15.3204 13.8155 15.4133 13.8627 15.5196C13.9108 15.6274 13.9354 15.7508 13.9354 15.8864C13.9354 16.0543 13.8995 16.2082 13.8288 16.3442V16.3442ZM17.1873 15.3821H16.1033V16.4114H15.4869V15.3821H14.403V14.7919H15.4869V13.763H16.1033V14.7919H17.1873V15.3821ZM16.2287 10.6251H14.6873V10.9165C14.6873 11.4419 14.2573 11.8845 13.7323 11.8751C13.2229 11.8657 12.8124 11.4497 12.8124 10.9376V10.6251H3.74996C3.23239 10.6251 2.81247 10.2056 2.81247 9.68761C2.81247 9.16965 3.23239 8.75012 3.74996 8.75012H16.2498C16.7615 8.75012 17.1772 9.15949 17.1873 9.66886C17.1975 10.1946 16.7545 10.6251 16.2287 10.6251V10.6251ZM13.1014 15.5118C12.9581 15.4192 12.7362 15.3723 12.4413 15.3723H11.4077V16.3805H12.5143C12.7663 16.3805 12.9647 16.3317 13.1034 16.2356C13.167 16.1914 13.2147 16.1391 13.2463 16.0774C13.2776 16.0157 13.2932 15.9446 13.2932 15.8637C13.2932 15.7082 13.2323 15.5965 13.1014 15.5118ZM12.9061 14.6516C13.0295 14.5669 13.0897 14.4438 13.0897 14.2755C13.0897 14.1352 13.037 14.0278 12.928 13.9462C12.8104 13.8583 12.6327 13.8137 12.3995 13.8137H11.4077V14.7919H12.3682C12.5893 14.7919 12.7702 14.745 12.9061 14.6516V14.6516ZM7.64836 15.4563H8.94873L8.30069 14.0614L7.64836 15.4563ZM5.21674 14.1989C5.09838 14.0852 4.95073 13.9946 4.77847 13.9286C4.60503 13.8626 4.40816 13.829 4.1941 13.829H3.45465V16.3657H4.1941C4.40855 16.3657 4.60542 16.3325 4.77925 16.268C4.95112 16.2039 5.09838 16.1137 5.21674 16.0004C5.3351 15.8868 5.42807 15.7528 5.49252 15.6012C5.55736 15.45 5.59018 15.2821 5.59018 15.102C5.59018 14.9219 5.55736 14.7571 5.49252 14.6024C5.42768 14.4477 5.33471 14.3122 5.21674 14.1989V14.1989ZM5.49252 14.6024C5.42768 14.4477 5.33471 14.3122 5.21674 14.1989C5.09838 14.0852 4.95073 13.9946 4.77847 13.9286C4.60503 13.8626 4.40816 13.829 4.1941 13.829H3.45465V16.3657H4.1941C4.40855 16.3657 4.60542 16.3325 4.77925 16.268C4.95112 16.2039 5.09838 16.1137 5.21674 16.0004C5.3351 15.8868 5.42807 15.7528 5.49252 15.6012C5.55736 15.45 5.59018 15.2821 5.59018 15.102C5.59018 14.9219 5.55736 14.7571 5.49252 14.6024V14.6024ZM8.30069 14.0614L7.64836 15.4563H8.94873L8.30069 14.0614ZM8.30069 14.0614L7.64836 15.4563H8.94873L8.30069 14.0614ZM5.49252 14.6024C5.42768 14.4477 5.33471 14.3122 5.21674 14.1989C5.09838 14.0852 4.95073 13.9946 4.77847 13.9286C4.60503 13.8626 4.40816 13.829 4.1941 13.829H3.45465V16.3657H4.1941C4.40855 16.3657 4.60542 16.3325 4.77925 16.268C4.95112 16.2039 5.09838 16.1137 5.21674 16.0004C5.3351 15.8868 5.42807 15.7528 5.49252 15.6012C5.55736 15.45 5.59018 15.2821 5.59018 15.102C5.59018 14.9219 5.55736 14.7571 5.49252 14.6024V14.6024Z" fill="#212EA0"/>
</svg>
