<svg width="18" height="20" viewBox="0 0 18 20" fill="none" xmlns="http://www.w3.org/2000/svg">
<path d="M9.87223 20H8.40046C8.19175 20 7.99825 19.8926 7.89036 19.7169C7.43789 18.98 6.452 18.5039 5.3786 18.5039C4.64425 18.5039 3.95172 18.7201 3.42855 19.1128C3.29241 19.215 3.11818 19.2546 2.95022 19.2216C2.78227 19.1886 2.63691 19.0861 2.55119 18.9403L0.580043 15.5885C0.491338 15.4377 0.475487 15.2558 0.536862 15.0923C0.598237 14.9288 0.730441 14.8007 0.897563 14.7427C2.41906 14.2146 3.4817 12.4424 3.4817 10.4331C3.4817 8.48582 2.50304 6.77664 1.04641 6.17992C0.888188 6.11508 0.765915 5.98637 0.711095 5.8266C0.656196 5.66687 0.673913 5.49168 0.759758 5.3457L2.30887 2.7116C2.4566 2.46043 2.76912 2.35344 3.04342 2.45988C3.37178 2.5873 3.72327 2.65191 4.08822 2.65191C5.45725 2.65191 6.57102 1.72512 6.57102 0.585938C6.57102 0.262344 6.83781 0 7.16689 0H11.1058C11.4349 0 11.7017 0.262344 11.7017 0.585938C11.7017 1.72512 12.8155 2.65191 14.1845 2.65191C14.5495 2.65191 14.901 2.5873 15.2293 2.45992C15.5037 2.3534 15.816 2.46043 15.9639 2.7116L17.513 5.34574C17.5988 5.49168 17.6166 5.66691 17.5617 5.82664C17.5068 5.98641 17.3846 6.11512 17.2264 6.17996C15.7697 6.77664 14.791 8.48586 14.791 10.4331C14.791 12.4425 15.8537 14.2146 17.3752 14.7427C17.5423 14.8007 17.6745 14.9289 17.7359 15.0923C17.7972 15.2559 17.7814 15.4377 17.6927 15.5886L15.7215 18.9404C15.6358 19.0861 15.4905 19.1886 15.3225 19.2216C15.1545 19.2546 14.9803 19.215 14.8442 19.1128C14.321 18.7202 13.6285 18.5039 12.8941 18.5039C11.973 18.5039 11.1172 18.8487 10.5993 19.4273L10.3541 19.7588C10.242 19.9103 10.0629 20 9.87223 20Z" fill="#212EA0"/>
</svg>
