<svg width="16" height="20" viewBox="0 0 16 20" fill="none" xmlns="http://www.w3.org/2000/svg">
<path d="M6.33275 15.4167C6.33275 14.4553 6.52074 13.9858 6.71928 13.4882C6.90989 13.0124 7.10549 12.521 7.15412 11.6671H7.58263C7.75109 11.6671 7.90323 11.5658 7.96752 11.4099C8.03181 11.2541 7.99599 11.0751 7.87718 10.9559L7.04394 10.1227C6.88118 9.95989 6.61753 9.95989 6.45481 10.1227L5.62157 10.9559C5.50276 11.0751 5.46698 11.2541 5.53123 11.4099C5.59552 11.5658 5.74769 11.6671 5.91612 11.6671H6.31155C6.26409 12.3483 6.11235 12.7627 5.94623 13.179C5.8323 13.4633 5.71711 13.7547 5.63192 14.1239L5.44089 14.144L4.71182 7.79335C4.68823 7.62125 4.63452 7.44549 4.56617 7.30675C4.35135 6.60694 3.77765 6.06625 3.05589 5.89251C2.72064 5.8144 2.46024 5.81072 2.0957 5.89619C1.18923 6.11468 0.546363 6.89585 0.508124 7.88736C0.503242 7.91501 0.5 7.94716 0.5 7.97239C0.5 9.62832 0.703418 11.2826 1.10541 12.8901L1.88006 15.9896C2.09977 16.8672 2.68889 17.602 3.49776 18.0064C3.92498 18.22 4.40423 18.3331 4.88192 18.3331H6.18066C6.26925 18.6569 6.33279 19.0375 6.33279 19.583C6.33279 19.8133 6.51914 19.9996 6.74943 19.9996C6.97972 19.9996 7.16607 19.8133 7.16607 19.583C7.16607 18.4613 6.93902 17.8937 6.71932 17.3452C6.52074 16.8476 6.33275 16.3781 6.33275 15.4167Z" fill="#212EA0"/>
<path d="M9.24913 15.4142C9.24913 14.4527 9.43712 13.9833 9.63566 13.4856C9.82627 13.0099 10.0219 12.5184 10.0705 11.6645H10.499C10.6675 11.6645 10.8196 11.5632 10.8839 11.4074C10.9482 11.2516 10.9124 11.0726 10.7936 10.9534L9.96032 10.1201C9.79756 9.95736 9.53391 9.95736 9.37119 10.1201L8.53795 10.9534C8.41914 11.0726 8.38336 11.2516 8.44761 11.4074C8.5119 11.5633 8.66407 11.6645 8.83249 11.6645H9.22792C9.18047 12.3458 9.02873 12.7602 8.86261 13.1764C8.7757 13.3934 8.68825 13.6149 8.61357 13.8709L7.65913 13.9486C7.48091 13.9633 7.33119 14.0906 7.28889 14.2652C7.20507 14.6073 7.16602 14.9723 7.16602 15.4142C7.16602 16.3772 7.354 16.8463 7.55336 17.3423C7.63636 17.5506 7.72424 17.7716 7.79912 18.0307C7.85118 18.2085 8.01394 18.3306 8.19947 18.3306H9.09704C9.18562 18.6543 9.24917 19.035 9.24917 19.5804C9.24917 19.8107 9.43552 19.9971 9.66581 19.9971C9.8961 19.9971 10.0825 19.8107 10.0825 19.5804C10.0825 18.4587 9.8554 17.8912 9.6357 17.3427C9.43712 16.8451 9.24913 16.3756 9.24913 15.4142Z" fill="#212EA0"/>
<path d="M12.1662 15.4142C12.1662 14.4527 12.3542 13.9833 12.5527 13.4856C12.7433 13.0099 12.9389 12.5184 12.9876 11.6645H13.4161C13.5845 11.6645 13.7367 11.5632 13.801 11.4074C13.8653 11.2516 13.8294 11.0726 13.7106 10.9534L12.8774 10.1201C12.7146 9.95736 12.451 9.95736 12.2883 10.1201L11.455 10.9534C11.3362 11.0726 11.3004 11.2516 11.3647 11.4074C11.429 11.5633 11.5811 11.6645 11.7496 11.6645H12.145C12.0975 12.3458 11.9458 12.7602 11.7797 13.1764C11.7216 13.3216 11.6632 13.4689 11.6083 13.6266L10.6486 13.7049C10.4809 13.7188 10.3377 13.8327 10.2856 13.993C10.1441 14.4369 10.083 14.862 10.083 15.4141C10.083 16.3772 10.271 16.8463 10.4704 17.3423C10.5534 17.5506 10.6412 17.7715 10.7161 18.0307C10.7682 18.2085 10.9309 18.3305 11.1165 18.3305H11.8293C11.8905 18.3305 11.9495 18.3206 12.0099 18.3165C12.1007 18.6433 12.1662 19.0268 12.1662 19.5804C12.1662 19.8107 12.3525 19.997 12.5828 19.997C12.8131 19.997 12.9994 19.8107 12.9994 19.5804C12.9994 18.4587 12.7724 17.8911 12.5527 17.3427C12.3542 16.8451 12.1662 16.3756 12.1662 15.4142Z" fill="#212EA0"/>
<path d="M14.9552 13.9381C14.6077 13.6102 14.1317 13.4348 13.6573 13.4653C13.493 13.4747 13.3497 13.5797 13.2911 13.7335C13.1162 14.1956 12.999 14.6586 12.999 15.4154C12.999 16.3784 13.187 16.8476 13.3864 17.3439C13.3872 17.346 13.4205 17.4294 13.4214 17.4314C13.4702 17.549 13.5703 17.6377 13.6931 17.6719C13.7306 17.6825 13.768 17.6873 13.8054 17.6873C13.8925 17.6873 13.9788 17.6601 14.0512 17.6072C14.6908 17.1409 15.1603 16.4989 15.4085 15.7523C15.4687 15.5749 15.4988 15.389 15.4988 15.2002C15.4988 14.7176 15.3059 14.2693 14.9552 13.9381Z" fill="#212EA0"/>
<path d="M2.59377 4.99952C3.44412 4.99952 4.18217 4.39411 4.34899 3.56044L4.63299 2.14132C4.73876 1.6132 4.60369 1.07169 4.26193 0.655444C3.92095 0.238844 3.41561 0 2.87695 0H2.59377C1.6059 0 0.802734 0.803164 0.802734 1.79018V3.2093C0.802734 4.19639 1.6059 4.99952 2.59377 4.99952Z" fill="#212EA0"/>
</svg>
