<svg width="22" height="16" viewBox="0 0 22 16" fill="none" xmlns="http://www.w3.org/2000/svg">
<path d="M0.594726 0.209459L0.594727 2.84082L5.1715 2.84082C5.1715 2.84082 8.02819 1.16471 9.67951 0.209459L0.594726 0.209459Z" fill="#212EA0"/>
<path d="M10.8214 0.589613C10.8214 0.44544 10.7848 0.315915 10.7236 0.21029L12.4361 0.21029C14.0711 0.21029 15.3963 1.83012 15.3963 3.82851L15.3963 12.3818C15.3969 14.3802 14.0711 16 12.4361 16L10.7236 16C10.7848 15.8944 10.8214 15.7649 10.8214 15.6207L10.8214 0.589613Z" fill="#212EA0"/>
<path d="M9.67951 16C8.02756 15.0448 5.1696 13.3686 5.1715 13.3686L0.594726 13.3686L0.594727 16L9.67951 16Z" fill="#212EA0"/>
<path d="M5.70801 12.0503L5.70801 4.15856C5.70801 4.03135 5.76793 3.91493 5.86254 3.86096L9.74485 1.62589L9.74485 14.583L5.86254 12.3479C5.76856 12.294 5.70801 12.1775 5.70801 12.0503Z" fill="#212EA0"/>
<path d="M0.594727 12.0527L4.63157 12.0527L4.63157 4.15788L0.594726 4.15788L0.594727 12.0527Z" fill="#212EA0"/>
<path d="M18.3757 0.357743C18.6065 0.128761 18.9452 0.171936 19.1326 0.454115C20.5593 2.60207 21.4058 5.24423 21.4058 8.10534C21.4058 10.9665 20.5594 13.6086 19.1326 15.7566C18.9452 16.0387 18.6065 16.0819 18.3757 15.8529C18.1448 15.624 18.1095 15.2099 18.2968 14.9278C19.581 12.9941 20.3291 10.6396 20.3291 8.10534C20.3291 5.57112 19.581 3.21732 18.2968 1.28292C18.1095 1.00074 18.1448 0.586724 18.3757 0.357743Z" fill="#212EA0"/>
<path d="M16.8996 3.91075C17.1601 3.73574 17.4875 3.85139 17.6306 4.16903C18.1516 5.3255 18.4431 6.59994 18.4431 7.94067C18.4431 9.28141 18.1516 10.5558 17.6306 11.7123C17.4875 12.0307 17.1601 12.1464 16.8996 11.9706C16.6391 11.7956 16.5445 11.3954 16.6883 11.077C17.1286 10.1002 17.367 9.04241 17.367 7.94067C17.367 6.83894 17.1286 5.78115 16.6883 4.80432C16.5451 4.4859 16.6397 4.08576 16.8996 3.91075Z" fill="#212EA0"/>
</svg>
